<!--atf-design-development-icon-->
		<!DOCTYPE svg PUBLIC "-//W3C//DTD SVG 1.1//EN" "http://www.w3.org/Graphics/SVG/1.1/DTD/svg11.dtd" [
				<!ENTITY ns_flows "http://ns.adobe.com/Flows/1.0/">
				]><svg xmlns="http://www.w3.org/2000/svg" width="400" height="400" viewBox="-30.156 -101.676 400 400" overflow="visible" enable-background="new -30.156 -101.676 400 400"><path fill="#3F51B5" d="M158.91 176.494l.182-.029.242-.061.138-.039.256-.082.1-.037.05-.012.024-.016 34.464-13.838 1.64-.658c1.545-.623 2.562-2.119 2.562-3.797 0-1.67-1.017-3.172-2.562-3.797l-1.628-.648-34.484-13.846-.065-.029-.116-.041-.239-.078-.138-.033-.242-.066-.182-.021-.211-.037-.4-.012h-139.686c-10.26-.001-18.615 8.351-18.615 18.619 0 10.258 8.348 18.609 18.615 18.609h139.683l.4-.021.212-.03zm13.515-23.014l11.069 4.445-11.081 4.455-10.029 4.023v-16.956l10.041 4.033zm-153.81 14.883c-5.748 0-10.438-4.682-10.438-10.438s4.689-10.438 10.438-10.438h10.621v20.875h-10.621zm63.244 0h-44.441v-20.875h116.789v20.874h-72.348zM322.719 100.609l-10.206-10.209c-1.322-1.322-3.661-1.273-4.818 0-.669.668-1.04 1.586-1.02 2.512.017.906.393 1.734 1.02 2.311l7.798 7.797-7.798 7.795c-.669.674-1.04 1.592-1.02 2.518.021.9.393 1.73 1.017 2.301.637.641 1.536 1.025 2.412 1.025.869 0 1.769-.381 2.409-1.021l10.206-10.209c.669-.67 1.041-1.586 1.02-2.518-.021-.901-.392-1.731-1.02-2.302zM299.895 74.153c-1.806-.587-3.822.608-4.261 2.38l-14.552 51.098c-.276.881-.177 1.818.281 2.633.454.814 1.231 1.412 2.054 1.615.396.133.686.133.967.133 1.499 0 2.859-1.025 3.31-2.51l14.482-51.098c.276-.9.172-1.879-.281-2.689-.452-.797-1.182-1.36-2-1.562zM275.074 92.912c.021-.926-.351-1.844-1.02-2.512-1.335-1.336-3.648-1.286-4.822 0l-10.205 10.209c-.67.67-1.042 1.582-1.025 2.512.021.9.396 1.732 1.025 2.307l10.205 10.209c.649.648 1.528 1.021 2.413 1.021.876 0 1.751-.373 2.409-1.021.669-.668 1.04-1.586 1.02-2.512-.016-.904-.392-1.736-1.02-2.311l-7.801-7.795 7.768-7.766c.662-.607 1.038-1.435 1.053-2.341z"/><path fill="none" d="M320.851 43.272h-73.17v119.464h84.735v-119.464h-3.475zM44.145 118.426l108.508-31.533-108.508-31.536z"/><path d="M286.826 187.562h-251.77100000000002v9.086h260.857v-19.369h-9.086zM54.582 28.283c0 3.561 2.888 6.443 6.445 6.443 3.566 0 6.445-2.883 6.445-6.443 0-3.559-2.879-6.446-6.445-6.446-3.557 0-6.445 2.888-6.445 6.446zM75.391 28.283c0 3.561 2.887 6.443 6.443 6.443 3.562 0 6.446-2.883 6.446-6.443 0-3.559-2.884-6.446-6.446-6.446-3.557 0-6.443 2.888-6.443 6.446zM96.197 28.283c0 3.561 2.892 6.443 6.445 6.443 3.562 0 6.446-2.883 6.446-6.443 0-3.559-2.885-6.446-6.446-6.446-3.553 0-6.445 2.888-6.445 6.446zM44.145 9.086h242.681v19.65h9.086v-28.736h-260.857v46.343h9.09z"/><path fill="#3F51B5" d="M35.055 46.343v81.099h198.086v-7.268h-168.965l101.501-29.497 67.464 19.608v-7.568l-54.444-15.824 54.444-15.826v-7.568l-67.464 19.608-101.501-29.498h168.965v-7.267h-198.086zm117.598 40.55l-108.508 31.533v-63.069l108.508 31.536z"/><path d="M328.941 36.004h-88.52799999999999v134.00400000000002h46.413v.004h9.086v-.004h43.775v-134.004h-10.746zm3.475 126.732h-84.73599999999999v-119.46299999999998h84.73599999999999v119.463z"/></svg>