<!--branded-graphics-icon-->
<!DOCTYPE svg PUBLIC "-//W3C//DTD SVG 1.1//EN" "http://www.w3.org/Graphics/SVG/1.1/DTD/svg11.dtd" [
	<!ENTITY ns_flows "http://ns.adobe.com/Flows/1.0/">
]><svg xmlns="http://www.w3.org/2000/svg" width="400" height="400" viewBox="-47.686 -101.676 400 400" overflow="visible" enable-background="new -47.686 -101.676 400 400"><path fill="#3F51B5" d="M90.847 176.824h-64.873v-37.711h64.873v37.711zm-57.602-7.267h50.333v-23.176h-50.333v23.176z"/><path d="M110.179 145.648h73.683v7.834h-73.683zM110.179 162.459h73.683v7.828h-73.683z"/><path fill="#3F51B5" d="M233.675 105.691l-4.31 13.068h-5.554l14.185-41.557h6.412l14.181 41.557h-5.735l-4.441-13.068h-14.738zm13.688-4.195l-4.125-11.965c-.929-2.709-1.54-5.18-2.163-7.585h-.12c-.616 2.405-1.236 4.996-2.1 7.523l-4.066 12.026h12.574zM285.747 111.611c0 2.592.12 5.111.43 7.148h-4.871l-.43-3.756h-.186c-1.669 2.344-4.871 4.438-9.128 4.438-6.044 0-9.127-4.26-9.127-8.57 0-7.209 6.412-11.16 17.94-11.102v-.623c0-2.4-.673-6.9-6.776-6.842-2.843 0-5.739.805-7.834 2.218l-1.239-3.631c2.479-1.542 6.106-2.595 9.875-2.595 9.122 0 11.346 6.226 11.346 12.146v11.169zm-5.239-8.078c-5.921-.127-12.647.93-12.647 6.725 0 3.568 2.343 5.172 5.062 5.172 3.945 0 6.475-2.463 7.333-4.996.186-.611.252-1.227.252-1.719v-5.182z"/><path fill="none" d="M285.797 43.272h-73.17v119.46199999999999h84.734v-119.462h-3.478zM9.09 55.357v63.063l108.505-31.527z"/><path d="M19.527 28.283c0 3.562 2.884 6.444 6.446 6.444s6.444-2.883 6.444-6.444c0-3.558-2.883-6.446-6.444-6.446-3.562 0-6.446 2.889-6.446 6.446zM40.335 28.283c0 3.562 2.885 6.444 6.446 6.444 3.557 0 6.445-2.883 6.445-6.444 0-3.558-2.889-6.446-6.445-6.446-3.561 0-6.446 2.889-6.446 6.446zM61.139 28.283c0 3.562 2.896 6.444 6.451 6.444 3.556 0 6.443-2.883 6.443-6.444 0-3.558-2.888-6.446-6.443-6.446-3.555 0-6.451 2.889-6.451 6.446zM293.883 36.005h-88.523v134.001h99.26899999999998v-134.001h-10.746zm3.478 126.729h-84.73500000000001v-119.461h84.73499999999999v119.461zM9.09 9.087h242.678v19.646h9.089v-28.733h-260.857v46.343h9.09zM251.768 187.562h-242.678v-60.121h-9.09v69.207h260.857v-19.373h-9.089zM9.09 118.42v.006l108.505-31.533z"/><path fill="#3F51B5" d="M9.09 127.441h188.997v-7.268h-168.97l101.502-29.497 67.468 19.608v-7.568l-54.448-15.824 54.448-15.826v-7.568l-67.468 19.608-101.502-29.497h168.97v-7.267h-198.08700000000002v81.099h9.09zm0-9.021v-63.063l108.505 31.535-108.505 31.534v-.006z"/></svg>