<?xml version="1.0" encoding="utf-8"?>
<!-- Generator: Adobe Illustrator 15.1.0, SVG Export Plug-In  -->
<!DOCTYPE svg PUBLIC "-//W3C//DTD SVG 1.1//EN" "http://www.w3.org/Graphics/SVG/1.1/DTD/svg11.dtd" [
	<!ENTITY ns_flows "http://ns.adobe.com/Flows/1.0/">
]>
<svg version="1.1"
	 xmlns="http://www.w3.org/2000/svg" xmlns:xlink="http://www.w3.org/1999/xlink" xmlns:a="http://ns.adobe.com/AdobeSVGViewerExtensions/3.0/"
	 x="0px" y="0px" width="160px" height="149px" viewBox="-10.467 -7.461 160 149"
	 overflow="visible" enable-background="new -10.467 -7.461 160 149" xml:space="preserve">
<defs>
</defs>
<rect x="10.384" y="62.263" fill="none" width="13.342" height="2.224"/>
<rect x="14.831" y="68.934" fill="none" width="4.447" height="22.236"/>
<rect x="10.384" y="95.617" fill="none" width="13.342" height="2.225"/>
<rect x="63.752" y="95.617" fill="none" width="13.343" height="2.225"/>
<rect x="37.068" y="62.263" fill="none" width="13.342" height="2.224"/>
<rect x="68.199" y="68.934" fill="none" width="4.448" height="22.236"/>
<rect x="10.384" y="48.92" fill="none" width="66.711" height="2.225"/>
<rect x="63.752" y="62.263" fill="none" width="13.343" height="2.224"/>
<path fill="none" d="M57.081,126.75c0,3.678,2.993,6.67,6.671,6.67h62.264c3.677,0,6.671-2.992,6.671-6.67v-13.343H57.081V126.75z
	 M94.884,115.631c4.292,0,7.783,3.49,7.783,7.783c0,4.292-3.491,7.783-7.783,7.783s-7.783-3.491-7.783-7.783
	C87.101,119.121,90.592,115.631,94.884,115.631z"/>
<rect x="41.516" y="68.934" fill="none" width="4.447" height="22.236"/>
<path fill="none" d="M126.016,4.447H63.752c-3.678,0-6.671,2.992-6.671,6.671v6.671h75.606v-6.671
	C132.687,7.439,129.693,4.447,126.016,4.447z M83.766,13.342h-4.447V8.895h4.447V13.342z M110.449,13.342H92.66V8.895h17.789V13.342
	z"/>
<path fill="none" d="M94.884,126.75c1.839,0,3.336-1.497,3.336-3.336s-1.497-3.336-3.336-3.336s-3.336,1.497-3.336,3.336
	S93.045,126.75,94.884,126.75z"/>
<rect x="37.068" y="95.617" fill="none" width="13.342" height="2.225"/>
<path fill="#919396" d="M126.016,0H63.752c-6.131,0-11.118,4.986-11.118,11.118v11.599l4.447,2.776v-3.257h75.606v86.724H57.081
	v-6.671h28.908v-4.447h-4.447V91.17h-4.447V68.934h4.447V57.815H59.305v11.118h4.447V91.17h-4.447v6.672h-4.447V91.17H50.41V68.934
	h4.447V57.815H32.621v11.118h4.447V91.17h-4.447v6.672h-4.447V91.17h-4.448V68.934h4.448V57.815H5.937v11.118h4.447V91.17H5.937
	v6.672H1.489v4.447h51.145v24.461c0,6.131,4.987,11.117,11.118,11.117h62.264c6.13,0,11.119-4.986,11.119-11.117V11.118
	C137.134,4.986,132.146,0,126.016,0z M63.752,62.263h13.343v2.224H63.752V62.263z M72.647,68.934V91.17h-4.448V68.934H72.647z
	 M63.752,95.617h13.343v2.225H63.752V95.617z M10.384,62.263h13.342v2.224H10.384V62.263z M19.278,68.934V91.17h-4.447V68.934
	H19.278z M23.726,97.842H10.384v-2.225h13.342V97.842z M37.068,62.263H50.41v2.224H37.068V62.263z M45.963,68.934V91.17h-4.447
	V68.934H45.963z M50.41,97.842H37.068v-2.225H50.41V97.842z M132.687,126.75c0,3.678-2.994,6.67-6.671,6.67H63.752
	c-3.678,0-6.671-2.992-6.671-6.67v-13.343h75.606V126.75z M132.687,17.789H57.081v-6.671c0-3.679,2.993-6.671,6.671-6.671h62.264
	c3.677,0,6.671,2.992,6.671,6.671V17.789z"/>
<path fill="#1B83C6" d="M57.081,25.493l-4.447-2.776l-8.895-5.554L0,44.473h5.937h75.605h5.937L57.081,25.493z"/>
<path fill="#919396" d="M5.937,55.592h75.605V44.473H5.937V55.592z M10.384,48.92h66.711v2.225H10.384V48.92z"/>
<rect x="92.66" y="8.895" fill="#919396" width="17.789" height="4.447"/>
<rect x="79.318" y="8.895" fill="#919396" width="4.447" height="4.447"/>
<path fill="#919396" d="M94.884,131.197c4.292,0,7.783-3.491,7.783-7.783c0-4.293-3.491-7.783-7.783-7.783s-7.783,3.49-7.783,7.783
	C87.101,127.706,90.592,131.197,94.884,131.197z M94.884,120.078c1.839,0,3.336,1.497,3.336,3.336s-1.497,3.336-3.336,3.336
	s-3.336-1.497-3.336-3.336S93.045,120.078,94.884,120.078z"/>
<circle fill="#FFFFFF" cx="43.739" cy="32.645" r="5.635"/>
</svg>
