<!--consulting-strategy-icon-->
<!DOCTYPE svg PUBLIC "-//W3C//DTD SVG 1.1//EN" "http://www.w3.org/Graphics/SVG/1.1/DTD/svg11.dtd" [
	<!ENTITY ns_flows "http://ns.adobe.com/Flows/1.0/">
]><svg xmlns="http://www.w3.org/2000/svg" width="400" height="400" viewBox="-69.471 -65 400 400" overflow="visible" enable-background="new -69.471 -65 400 400"><path d="M136.554 0h-119.17c-8.647 0-15.677 7.034-15.677 15.682v123.075c0 3.464 2.069 6.569 5.269 7.904 1.059.441 2.178.666 3.314.666 2.278 0 4.435-.886 6.073-2.504l28.065-28.067h55.261v-10.13h-55.919c-2.282 0-4.438.894-6.064 2.527l-25.861 25.868v-119.339c0-3.062 2.482-5.552 5.54-5.552h119.169c3.057 0 5.544 2.49 5.544 5.552v13.379h10.13v-13.379c0-8.648-7.031-15.682-15.674-15.682z"/><path fill="#3F51B5" d="M152.476 89.337c-5.235 0-9.495 4.26-9.495 9.491 0 5.234 4.26 9.489 9.495 9.489 5.23 0 9.485-4.255 9.485-9.489 0-5.231-4.255-9.491-9.485-9.491zm33.32 0c-5.235 0-9.495 4.26-9.495 9.491 0 5.234 4.26 9.489 9.495 9.489 5.224 0 9.479-4.255 9.479-9.489-.001-5.231-4.255-9.491-9.479-9.491zm33.308 0c-5.232 0-9.488 4.26-9.488 9.491 0 5.234 4.256 9.489 9.488 9.489 5.234 0 9.49-4.255 9.49-9.489.001-5.231-4.255-9.491-9.49-9.491zm26.265-50.109h-119.162c-8.648 0-15.684 7.04-15.684 15.69v85.392c0 8.649 7.036 15.688 15.684 15.688h92.14l28.066 28.06c1.618 1.625 3.77 2.516 6.055 2.516 1.13 0 2.239-.224 3.291-.656 3.219-1.336 5.3-4.445 5.3-7.929v-123.076c0-8.645-7.037-15.685-15.69-15.685zm-124.718 15.685c0-3.064 2.491-5.556 5.555-5.556h119.163c3.064 0 5.56 2.491 5.56 5.556v119.333l-25.873-25.87c-1.618-1.621-3.772-2.515-6.064-2.515h-92.785c-3.064 0-5.555-2.489-5.555-5.559v-85.389z"/><path d="M189.65 227.143h2.915c15.476 0 28.066-12.586 28.066-28.058v-9.406c0-15.472-12.591-28.062-28.066-28.062h-2.915c-15.473.003-28.06 12.591-28.06 28.062v9.406c.001 15.472 12.588 28.058 28.06 28.058zm-17.237-37.464c0-9.511 7.733-17.245 17.237-17.245h2.915c9.507 0 17.243 7.734 17.243 17.245v9.406c0 9.508-7.736 17.241-17.243 17.241h-2.915c-9.504 0-17.237-7.733-17.237-17.241v-9.406zm48.175 29.36l-.732-.388-.47.68c-1.738 2.506-3.829 4.754-6.219 6.672l-1.226.99 1.461.596c9.226 3.778 15.188 12.635 15.188 22.566v9.026h-74.957v-9.026c0-9.932 5.962-18.788 15.19-22.566l1.457-.596-1.229-.99c-2.38-1.918-4.473-4.166-6.226-6.676l-.47-.674-.724.386c-11.609 6.126-18.817 18.05-18.817 31.116v19.845h96.586v-19.845c0-13.063-7.208-24.987-18.812-31.116zm-142.812-11.53l-.729-.384-.468.682c-1.74 2.509-3.831 4.757-6.224 6.679l-1.229.99 1.461.596c9.225 3.772 15.186 12.627 15.186 22.562v20.549h-74.955v-20.549c0-9.932 5.962-18.786 15.194-22.562l1.461-.596-1.231-.99c-2.387-1.922-4.482-4.17-6.221-6.684l-.472-.677-.729.384c-11.61 6.131-18.82 18.058-18.82 31.124v31.367h96.593v-31.367c0-13.071-7.208-24.993-18.817-31.124zm-28.015-57.41h-2.922c-15.473 0-28.06 12.587-28.06 28.06v9.41c0 15.474 12.587 28.063 28.06 28.063h2.922c15.469 0 28.055-12.59 28.055-28.063v-9.41c0-15.473-12.586-28.06-28.055-28.06zm17.241 37.475c0 9.501-7.733 17.236-17.241 17.236h-2.922c-9.504 0-17.235-7.735-17.235-17.236v-9.416c0-9.508 7.731-17.238 17.235-17.238h2.922c9.507 0 17.241 7.73 17.241 17.238v9.416z"/></svg>