<?xml version="1.0" encoding="utf-8"?>
<!-- Generator: Adobe Illustrator 15.1.0, SVG Export Plug-In  -->
<!DOCTYPE svg PUBLIC "-//W3C//DTD SVG 1.1//EN" "http://www.w3.org/Graphics/SVG/1.1/DTD/svg11.dtd" [
	<!ENTITY ns_flows "http://ns.adobe.com/Flows/1.0/">
]>
<svg version="1.1"
	 xmlns="http://www.w3.org/2000/svg" xmlns:xlink="http://www.w3.org/1999/xlink" xmlns:a="http://ns.adobe.com/AdobeSVGViewerExtensions/3.0/"
	 x="0px" y="0px" width="160px" height="149px" viewBox="-16.687 -6.062 160 149" enable-background="new -16.687 -6.062 160 149"
	 xml:space="preserve">
<defs>
</defs>
<path fill="#919396" d="M18.077,140.001C8.109,140.001,0,131.892,0,121.923c0-9.967,8.109-18.075,18.077-18.075
	c9.967,0,18.075,8.108,18.075,18.075C36.152,131.892,28.044,140.001,18.077,140.001z M18.077,107.848
	C10.315,107.848,4,114.162,4,121.923c0,7.763,6.315,14.078,14.077,14.078c7.761,0,14.075-6.315,14.075-14.078
	C32.152,114.162,25.838,107.848,18.077,107.848z"/>
<path fill="#919396" d="M62.96,123.923c-9.967,0-18.076-8.108-18.076-18.075c0-9.968,8.109-18.077,18.076-18.077
	c9.967,0,18.075,8.109,18.075,18.077C81.035,115.814,72.927,123.923,62.96,123.923z M62.96,91.771
	c-7.762,0-14.076,6.315-14.076,14.077c0,7.761,6.314,14.075,14.076,14.075c7.761,0,14.075-6.314,14.075-14.075
	C77.035,98.086,70.721,91.771,62.96,91.771z"/>
<rect x="2" y="85.177" fill="#919396" width="4.593" height="18.373"/>
<rect x="2" y="75.99" fill="#919396" width="4.593" height="4.593"/>
<rect x="29.56" y="69.101" fill="#919396" width="4.593" height="29.855"/>
<rect x="15.779" y="80.583" fill="#919396" width="4.594" height="20.672"/>
<rect x="15.779" y="71.397" fill="#919396" width="4.594" height="4.593"/>
<rect x="46.884" y="73.694" fill="#919396" width="4.594" height="16.076"/>
<rect x="74.441" y="69.101" fill="#919396" width="4.594" height="13.78"/>
<rect x="60.662" y="78.288" fill="#919396" width="4.593" height="6.889"/>
<rect x="60.662" y="69.101" fill="#919396" width="4.593" height="4.594"/>
<path fill="none" d="M4.83,54.481c0,2.23,1.814,4.045,4.045,4.045h55.799c-0.329-1.477-0.558-2.989-0.683-4.532h-8.419
	c-1.203,0-2.182-0.979-2.182-2.182V36.247c0-1.203,0.979-2.182,2.182-2.182h13.094c1.798-2.973,4.052-5.638,6.657-7.911H4.83V54.481
	z"/>
<path fill="none" d="M90.749,8.407c0-2.23-1.814-4.045-4.045-4.045H8.875c-2.23,0-4.045,1.814-4.045,4.045v0.932h85.919V8.407z"/>
<path fill="none" d="M4.83,13.702v8.09h76.828c2.817-1.493,5.871-2.596,9.091-3.232v-4.857H4.83z"/>
<path fill="none" d="M92.779,129.106c0,2.453,1.994,4.447,4.447,4.447c2.453,0,4.447-1.994,4.447-4.447v-35.58h-8.894V129.106z"/>
<polygon fill="none" points="95.002,89.079 99.449,89.079 99.449,84.632 97.226,84.632 95.002,84.632 "/>
<path fill="none" d="M57.753,49.632h6.159c0.193-3.953,1.079-7.727,2.536-11.203h-8.695V49.632z"/>
<path fill="#919396" d="M8.875,58.526c-2.23,0-4.045-1.814-4.045-4.045V26.154h70.493c1.93-1.685,4.053-3.152,6.334-4.362H4.83
	v-8.09h85.919v4.857c1.424-0.281,2.88-0.47,4.362-0.562v-9.59C95.111,3.771,91.339,0,86.704,0H8.875
	C4.238,0,0.466,3.771,0.466,8.407v46.074c0,4.636,3.771,8.407,8.408,8.407h57.085c-0.526-1.411-0.953-2.869-1.286-4.362H8.875z
	 M4.83,8.407c0-2.23,1.814-4.045,4.045-4.045h77.829c2.23,0,4.045,1.814,4.045,4.045v0.932H4.83V8.407z"/>
<path fill="#919396" d="M53.39,36.247v15.565c0,1.203,0.979,2.182,2.182,2.182h8.419c-0.073-0.897-0.12-1.802-0.12-2.717
	c0-0.552,0.015-1.101,0.042-1.646h-6.159V38.429h8.695c0.634-1.514,1.376-2.972,2.218-4.363H55.572
	C54.369,34.065,53.39,35.044,53.39,36.247z"/>
<path fill="#919396" d="M97.226,84.632h2.223v4.447h-4.447v-4.447H97.226c-2.284,0-4.516-0.232-6.672-0.672v5.119h-2.222v40.027
	c-0.001,4.905,3.988,8.895,8.894,8.895s8.895-3.989,8.894-8.895V89.079h-2.224l0-5.118C101.741,84.4,99.51,84.632,97.226,84.632z
	 M101.673,129.106c0,2.453-1.994,4.447-4.447,4.447c-2.453,0-4.447-1.994-4.447-4.447v-35.58h8.894V129.106z"/>
<path fill="#36BEC3" d="M103.897,83.961c15.206-3.1,26.684-16.576,26.684-32.684c0-18.392-14.964-33.355-33.354-33.354
	c-0.711,0-1.415,0.03-2.115,0.074c-1.482,0.093-2.938,0.281-4.362,0.562c-3.221,0.637-6.274,1.739-9.091,3.232
	c-2.282,1.21-4.404,2.678-6.334,4.362c-2.604,2.273-4.858,4.938-6.657,7.911c-0.842,1.392-1.583,2.85-2.218,4.363
	c-1.457,3.477-2.342,7.25-2.536,11.203c-0.026,0.545-0.042,1.094-0.042,1.646c0,0.915,0.047,1.819,0.12,2.717
	c0.125,1.543,0.354,3.056,0.683,4.532c0.333,1.493,0.76,2.951,1.286,4.362c3.972,10.658,13.243,18.758,24.595,21.071
	c2.156,0.439,4.388,0.672,6.672,0.672S101.741,84.4,103.897,83.961z M72.765,51.277c0-1.768,0.198-3.489,0.557-5.151
	c0.355-1.649,0.881-3.231,1.551-4.738c2.796-6.293,8.164-11.19,14.77-13.352c2.39-0.782,4.935-1.219,7.583-1.219
	c0.148,0,0.291,0.02,0.439,0.022c12.407,0.222,22.592,9.712,23.88,21.838c0.091,0.855,0.142,1.722,0.142,2.6
	c0,0.764-0.045,1.518-0.114,2.264c-0.83,8.988-6.543,16.572-14.457,20.089c-1.508,0.669-3.09,1.195-4.739,1.551
	c-1.663,0.357-3.383,0.556-5.15,0.556C83.739,75.737,72.765,64.763,72.765,51.277z"/>
<path fill="#919396" stroke="#919396" stroke-width="1.5236" stroke-miterlimit="10" d="M19.156,121.468h-2.161
	c-1.191,0-2.162-0.968-2.162-2.16c0-1.191,0.971-2.162,2.162-2.162h2.161c1.193,0,2.161,0.971,2.161,2.162h2.163
	c0-2.383-1.939-4.322-4.323-4.322v-2.161h-2.161v2.161c-2.384,0-4.322,1.939-4.322,4.322c0,2.384,1.938,4.323,4.322,4.323h2.161
	c1.192,0,2.162,0.969,2.162,2.16c0,1.192-0.97,2.162-2.162,2.162h-2.161c-1.191,0-2.162-0.97-2.162-2.162h-2.162
	c0,2.386,1.939,4.321,4.323,4.321v2.163h2.161v-2.163c2.384,0,4.323-1.936,4.323-4.321C23.479,123.406,21.54,121.468,19.156,121.468
	L19.156,121.468z M19.156,121.468"/>
<path fill="#919396" stroke="#919396" stroke-width="1.5236" stroke-miterlimit="10" d="M64.04,104.765h-2.161
	c-1.191,0-2.162-0.968-2.162-2.16c0-1.191,0.971-2.162,2.162-2.162h2.161c1.193,0,2.161,0.971,2.161,2.162h2.163
	c0-2.383-1.939-4.322-4.323-4.322v-2.161h-2.161v2.161c-2.384,0-4.322,1.939-4.322,4.322c0,2.384,1.938,4.323,4.322,4.323h2.161
	c1.192,0,2.162,0.969,2.162,2.16c0,1.192-0.97,2.162-2.162,2.162h-2.161c-1.191,0-2.162-0.97-2.162-2.162h-2.162
	c0,2.386,1.939,4.321,4.323,4.321v2.163h2.161v-2.163c2.384,0,4.323-1.936,4.323-4.321C68.362,106.703,66.423,104.765,64.04,104.765
	L64.04,104.765z M64.04,104.765"/>
</svg>
