<?xml version="1.0" encoding="utf-8"?>
<!-- Generator: Adobe Illustrator 15.1.0, SVG Export Plug-In  -->
<!DOCTYPE svg PUBLIC "-//W3C//DTD SVG 1.1//EN" "http://www.w3.org/Graphics/SVG/1.1/DTD/svg11.dtd" [
	<!ENTITY ns_flows "http://ns.adobe.com/Flows/1.0/">
]>
<svg version="1.1"
	 xmlns="http://www.w3.org/2000/svg" xmlns:xlink="http://www.w3.org/1999/xlink" xmlns:a="http://ns.adobe.com/AdobeSVGViewerExtensions/3.0/"
	 x="0px" y="0px" width="172px" height="149px" viewBox="-1.347 -5.732 172 149"
	 overflow="visible" enable-background="new -1.347 -5.732 172 149" xml:space="preserve">
<defs>
</defs>
<rect x="110.704" y="8.895" fill="#919396" width="37.801" height="4.447"/>
<rect x="119.598" y="17.789" fill="#919396" width="28.907" height="4.447"/>
<rect x="117.375" y="124.526" fill="#919396" width="31.13" height="4.447"/>
<path fill="#919396" d="M55.112,4.447h97.842v21.9v4.473h4.447V0H50.665v53.398c1.417-0.915,2.908-1.662,4.447-2.254V4.447z"/>
<path fill="#919396" d="M152.954,133.421h-17.791h-4.447h-1.128H55.112V96.742c-1.54-0.593-3.031-1.34-4.447-2.254v43.38h106.737
	v-0.521v-3.927V93.709h-4.447V133.421z"/>
<rect x="59.559" y="115.631" fill="#919396" width="88.946" height="4.447"/>
<path fill="#919396" d="M161.233,30.82h-3.832h-4.447h-69.55c-4.637,0-8.408,3.771-8.408,8.407v12.92
	c2.243,1.137,4.352,2.628,6.224,4.501c0.105,0.104,0.192,0.22,0.295,0.326h71.439h4.447h7.877v28.327
	c0,2.23-1.814,4.045-4.045,4.045h-3.832h-4.447h-69.55c-0.152,0-0.297-0.028-0.445-0.045c-0.541,0.669-1.117,1.317-1.738,1.938
	c-0.541,0.54-1.105,1.041-1.682,1.52c1.159,0.604,2.471,0.949,3.865,0.949h69.55h4.447h3.832c4.636,0,8.407-3.771,8.407-8.407
	V39.228C169.641,34.592,165.869,30.82,161.233,30.82z M165.278,52.612h-7.877h-4.447H79.359v-8.09h73.595h4.447h7.877V52.612z
	 M165.278,40.159h-7.877h-4.447H79.359v-0.932c0-2.23,1.814-4.045,4.045-4.045h69.55h4.447h3.832c2.23,0,4.045,1.814,4.045,4.045
	V40.159z"/>
<path fill="#919396" d="M130.102,84.814h22.853h4.447h0.72c1.202,0,2.181-0.979,2.181-2.182V67.067c0-1.203-0.979-2.182-2.181-2.182
	h-0.72h-4.447h-22.853c-1.203,0-2.182,0.979-2.182,2.182v15.565C127.92,83.836,128.898,84.814,130.102,84.814z M132.283,69.249
	h20.671h2.984v11.203h-2.984h-20.671V69.249z"/>
<path fill="#919396" d="M41.912,105.391l6.29-6.289l-9.435-9.435l-6.289,6.289l-1.572-1.571L2.602,122.688
	c-3.468,3.468-3.469,9.109,0,12.578c3.469,3.47,9.11,3.469,12.579,0l28.304-28.304L41.912,105.391z M38.767,95.957l3.145,3.145
	l-3.145,3.145l-3.145-3.145L38.767,95.957z M12.036,132.122c-1.734,1.734-4.555,1.734-6.289,0c-1.735-1.734-1.735-4.555,0-6.289
	l25.159-25.159l6.29,6.289L12.036,132.122z M12.036,132.122"/>
<path fill="none" d="M79.359,61.214c-0.403-0.488-0.827-0.965-1.284-1.421c-0.958-0.958-1.992-1.796-3.08-2.519
	c-5.954-3.957-13.567-4.373-19.884-1.279c-1.582,0.774-3.076,1.774-4.447,2.991c-0.299,0.266-0.605,0.52-0.892,0.806
	c-7.803,7.803-7.804,20.498,0,28.303c0.286,0.286,0.592,0.54,0.891,0.806c1.372,1.217,2.865,2.217,4.447,2.991
	c6.772,3.317,15.029,2.587,21.136-2.198c0.631-0.494,1.247-1.018,1.828-1.599c0.527-0.527,1.012-1.081,1.468-1.649
	C85.441,79.088,85.382,68.504,79.359,61.214z"/>
<path fill="#36BEC3" d="M87.51,50.358c-13.005-13.005-34.167-13.005-47.171,0c-13.005,13.004-13.004,34.166,0,47.171
	s34.166,13.005,47.17,0S100.515,63.362,87.51,50.358z M82.959,89.302c-0.541,0.669-1.117,1.317-1.738,1.938
	c-0.541,0.54-1.105,1.041-1.682,1.52c-6.942,5.77-16.346,7.092-24.427,3.982c-1.54-0.593-3.031-1.34-4.447-2.254
	c-1.429-0.923-2.786-1.999-4.036-3.249c-9.537-9.536-9.537-25.057-0.001-34.592c1.25-1.25,2.608-2.327,4.037-3.249
	c1.417-0.915,2.908-1.662,4.447-2.254c6.427-2.473,13.686-2.14,19.884,1.003c2.243,1.137,4.352,2.628,6.224,4.501
	c0.105,0.104,0.192,0.22,0.295,0.326C90.131,65.904,90.622,79.816,82.959,89.302z"/>
<path opacity="0.5" fill="#FFFFFF" d="M87.51,50.358c-13.005-13.005-34.167-13.005-47.171,0c-13.005,13.004-13.004,34.166,0,47.171
	s34.166,13.005,47.17,0S100.515,63.362,87.51,50.358z M82.959,89.302c-0.541,0.669-1.117,1.317-1.738,1.938
	c-0.541,0.54-1.105,1.041-1.682,1.52c-6.942,5.77-16.346,7.092-24.427,3.982c-1.54-0.593-3.031-1.34-4.447-2.254
	c-1.429-0.923-2.786-1.999-4.036-3.249c-9.537-9.536-9.537-25.057-0.001-34.592c1.25-1.25,2.608-2.327,4.037-3.249
	c1.417-0.915,2.908-1.662,4.447-2.254c6.427-2.473,13.686-2.14,19.884,1.003c2.243,1.137,4.352,2.628,6.224,4.501
	c0.105,0.104,0.192,0.22,0.295,0.326C90.131,65.904,90.622,79.816,82.959,89.302z"/>
</svg>
