<!--feature-batch-icon-->
<!DOCTYPE svg PUBLIC "-//W3C//DTD SVG 1.1//EN" "http://www.w3.org/Graphics/SVG/1.1/DTD/svg11.dtd" [
	<!ENTITY ns_flows "http://ns.adobe.com/Flows/1.0/">
]><svg xmlns="http://www.w3.org/2000/svg" width="400" height="400" viewBox="-65 -60.508 400 400" overflow="visible" enable-background="new -65 -60.508 400 400"><path fill="none" d="M188.966 83.229v-47.849l-45.854 23.925zM89.146 87.462h91.711l-45.853-23.928zM180.857 31.151h-91.711l45.858 23.924zM81.04 35.38v47.853l45.856-23.928zM218.585 258.466c0 5.957 4.849 10.811 10.81 10.811 5.963 0 10.808-4.854 10.808-10.811v-11.005h-21.617v11.005zM224.788 118.008h-6.203v120.979h21.617v-120.979h-6.199zM112.402 238.232h45.197v31.534h-45.197z"/><path d="M73.679 114.459h122.647v7.149h-122.647zM73.679 154.754h122.647v7.179h-122.647zM73.679 134.617h122.647v7.143h-122.647zM26.408 192.954h176.715v9.218h-176.715z"/><path fill="#3F51B5" d="M248.625 113.134l-.029-.176-.062-.264-.037-.136-.091-.263-.036-.1-.016-.055-.018-.025-14.333-35.703-.683-1.696c-.64-1.603-2.193-2.654-3.926-2.654s-3.287 1.051-3.933 2.654l-.674 1.677-14.341 35.725-.033.076-.04.11-.083.252-.037.14-.062.26-.026.176-.032.224-.019.421v144.687c0 10.631 8.646 19.281 19.284 19.281 10.628 0 19.281-8.647 19.281-19.281v-144.687l-.021-.421-.033-.222zm-23.837-13.996l4.606-11.47 4.608 11.488 4.175 10.382h-17.565l4.176-10.4zm15.414 159.328c0 5.957-4.845 10.811-10.808 10.811-5.961 0-10.81-4.854-10.81-10.811v-11.005h21.617v11.005zm0-65.512v46.034h-21.617v-120.98h21.616999999999997v74.946z"/><path d="M219.515 30.114v-30.114h-169.025v30.114h-50.49v207.964h103.184v31.688h-20.325v9.218h104.28200000000001v-9.218h-20.328v-31.688h36.31v-9.221h-193.905v-189.525h41.272v153.468h9.218v-183.582h150.589v53.456h9.218v-23.342h41.269v198.746h9.216v-207.964h-50.485zm-107.113 208.118h45.198v31.534h-45.197v-31.534z"/><path fill="#3F51B5" d="M74.615 24.727v69.159h120.773v-69.159h-120.773zm106.242 6.424l-45.854 23.924-45.857-23.924h91.711zm-99.817 4.229l45.856 23.925-45.856 23.928v-47.853zm8.106 52.082l45.857-23.928 45.854 23.928h-91.711zm99.82-4.233l-45.854-23.925 45.854-23.925v47.85z"/></svg>