<!--featured-template-icon-->
<!DOCTYPE svg PUBLIC "-//W3C//DTD SVG 1.1//EN" "http://www.w3.org/Graphics/SVG/1.1/DTD/svg11.dtd" [
	<!ENTITY ns_flows "http://ns.adobe.com/Flows/1.0/">
]><svg xmlns="http://www.w3.org/2000/svg" width="400" height="400" viewBox="-65 -75.565 400 400" overflow="visible" enable-background="new -65 -75.565 400 400"><path d="M26.404 162.839h217.188v9.217h-217.188zM223.202 0h-223.202v207.964h103.184v31.688h-20.325v9.219h104.286v-9.219h-20.329v-31.688h103.184v-207.964h-46.798zm-110.796 239.652v-31.539h45.19v31.539h-45.19zm148.377-40.905h-251.565v-189.53h251.56599999999997v189.53z"/><path fill="#3F51B5" d="M243.854 132.66h-9.218v7.517h-7.519v9.219h16.737zM193.438 140.177h21.049v9.219h-21.049zM159.757 140.177h21.05v9.219h-21.05zM130.394 132.66v16.736h16.735v-9.219h-7.521v-7.517zM139.608 34.134h7.521v-9.217h-16.735v16.735h9.214zM193.438 24.917h21.049v9.217h-21.049zM159.757 24.917h21.053v9.217h-21.053zM234.636 41.652h9.218v-16.735h-16.737v9.217h7.519zM234.636 56.023h9.218v23.949h-9.218zM234.636 94.343h9.218v23.946h-9.218z"/><path d="M198.498 103.524c-.029-.209-.173-.38-.37-.455l-23.507-8.329c-.208-.072-.436-.021-.59.136-.154.15-.205.381-.133.586l8.328 23.503c.074.198.249.341.455.374.211.026.417-.059.538-.227l4.237-5.779 6.991 6.991c.109.111.256.17.398.17.144 0 .289-.059.399-.17l4.236-4.233c.221-.224.221-.582 0-.802l-6.994-6.994 5.783-4.23c.17-.124.258-.332.229-.541z"/><path fill="#3F51B5" d="M147.181 52.778h-120.777v69.159h120.776v-69.159zm-14.532 6.424l-45.857 23.923-45.857-23.923h91.714zm-99.821 4.229l45.856 23.925-45.856 23.927v-47.852zm8.107 52.083l45.857-23.928 45.857 23.928h-91.714zm99.823-4.234l-45.858-23.924 45.858-23.925v47.849z"/></svg>