<!--hosting-icon-->
<!DOCTYPE svg PUBLIC "-//W3C//DTD SVG 1.1//EN" "http://www.w3.org/Graphics/SVG/1.1/DTD/svg11.dtd" [
	<!ENTITY ns_flows "http://ns.adobe.com/Flows/1.0/">
]><svg xmlns="http://www.w3.org/2000/svg" width="400" height="400" viewBox="-41.651 -47.686 400 400" overflow="visible" enable-background="new -41.651 -47.686 400 400"><path d="M137.589 27.518c7.727 0 14.965 2.896 20.279 8.205l5.312-5.309c-6.768-6.759-15.941-10.619-25.592-10.619-16.412 0-30.898 11.103-34.757 27.035l7.239 1.929c2.902-12.069 13.999-21.241 27.519-21.241zM316.219 113.934l-.488-1.449c-4.346-20.759-23.17-36.207-44.416-36.207h-5.793c-1.925-23.172-21.236-41.517-44.892-41.517-9.66 0-18.833 3.376-26.56 8.688-6.751-25.587-29.93-43.449-56.481-43.449-30.411 0-55.515 23.175-58.416 53.105-6.76-2.412-13.519-3.863-20.758-3.863-32.344 0-58.415 26.069-58.415 58.416 0 32.344 26.071 58.414 58.415 58.414h20.758v-6.754h-19.791c-28.484 0-51.176-22.692-51.176-51.177s23.172-51.176 51.176-51.176c7.239 0 13.998 1.449 20.279 4.346 0 5.31.957 11.103 2.893 15.933l6.758-2.413c-1.934-5.313-2.412-10.623-2.412-15.932 0-28.485 23.172-51.173 51.168-51.173 24.626 0 45.864 17.378 50.21 41.516-3.38 3.863-6.271 7.724-8.204 12.554l6.758 2.895c6.281-13.519 19.792-22.208 34.277-22.208 20.763 0 37.654 16.899 37.654 37.658v3.858h13.039c17.857 0 33.79 12.557 37.17 30.419v1.445c.479 1.934.479 4.348.479 6.276 0 20.759-16.89 38.142-38.136 38.142h-35.725v7.242h35.725c25.104 0 45.383-20.279 45.383-45.384-.001-3.379-.001-5.791-.479-8.205z"/><path fill="#3F51B5" d="M224.489 97.522h-134.211c-1.934 0-3.866 1.445-3.866 3.859v33.793c0 1.93 1.454 3.863 3.866 3.863h134.689c1.934 0 3.867-1.445 3.867-3.863v-33.793c-.486-2.413-2.411-3.859-4.345-3.859zm-3.381 33.311h-127.449v-26.555h127.449v26.555z"/><path d="M203.73 113.934h7.239v7.239h-7.239zM187.798 113.934h7.239v7.239h-7.239zM171.866 113.934h7.238v7.239h-7.238zM107.178 113.934h35.237v7.239h-35.237z"/><path fill="#3F51B5" d="M224.489 148.212h-134.211c-1.934 0-3.866 1.446-3.866 3.862v33.795c0 1.93 1.454 3.857 3.866 3.857h134.689c1.934 0 3.867-1.445 3.867-3.857v-33.795c-.486-2.416-2.411-3.862-4.345-3.862zm-3.381 33.309h-127.449v-26.551h127.449v26.551z"/><path d="M203.73 164.627h7.239v7.238h-7.239zM187.798 164.627h7.239v7.238h-7.239zM171.866 164.627h7.238v7.238h-7.238zM107.178 164.627h35.237v7.238h-35.237z"/><path fill="#3F51B5" d="M224.489 198.9h-134.211c-1.934 0-3.866 1.449-3.866 3.863v33.793c0 1.93 1.454 3.863 3.866 3.863h63.722v31.865c-5.792 1.445-10.132 7.238-10.132 13.514v.484l-38.144 11.586 1.934 6.76 38.136-11.586c2.414 3.859 6.76 6.756 12.074 6.756 4.825 0 9.173-2.896 12.064-6.756l38.137 11.586 1.934-6.76-38.137-11.586v-.484c0-6.275-4.347-12.068-10.14-13.514v-31.864h63.729c1.934 0 3.858-1.449 3.858-3.863v-33.793c-.965-2.414-2.89-3.864-4.824-3.864zm-60.349 85.938c0 3.857-2.893 6.756-6.759 6.756-3.86 0-6.761-2.898-6.761-6.756 0-3.865 2.9-6.76 6.761-6.76 3.866 0 6.759 2.895 6.759 6.76zm56.968-52.623h-127.449v-26.555h127.449v26.555z"/><path d="M203.73 215.799h7.239v7.244h-7.239zM171.866 215.799h7.238v7.244h-7.238zM187.798 215.799h7.239v7.244h-7.239zM107.178 215.799h35.237v7.244h-35.237z"/></svg>