<?xml version="1.0" encoding="utf-8"?>
<!-- Generator: Adobe Illustrator 15.1.0, SVG Export Plug-In  -->
<!DOCTYPE svg PUBLIC "-//W3C//DTD SVG 1.1//EN" "http://www.w3.org/Graphics/SVG/1.1/DTD/svg11.dtd" [
	<!ENTITY ns_flows "http://ns.adobe.com/Flows/1.0/">
]>
<svg version="1.1"
	 xmlns="http://www.w3.org/2000/svg" xmlns:xlink="http://www.w3.org/1999/xlink" xmlns:a="http://ns.adobe.com/AdobeSVGViewerExtensions/3.0/"
	 x="0px" y="0px" width="160px" height="149px" viewBox="-1.163 -3.957 160 149" enable-background="new -1.163 -3.957 160 149"
	 xml:space="preserve">
<defs>
</defs>
<!--Circle Section Bottom Left-->
<path fill="#919396" d="M30.892,80.098l-4.194,1.485c4.424,12.515,13.226,23.061,24.779,29.697l2.215-3.857
	C43.06,101.316,34.962,91.613,30.892,80.098L30.892,80.098z M30.892,80.098"/>
	<!--Circle Section Top-->
<path fill="#919396" d="M79.114,11.906c11.132,0,21.713,3.513,30.604,10.16l2.663-3.562c-9.663-7.228-21.169-11.046-33.267-11.046
	c-12.089,0-23.585,3.812-33.244,11.03l2.661,3.562C57.417,15.415,67.993,11.906,79.114,11.906L79.114,11.906z M79.114,11.906"/>
	<!--Circle Section Bottom Right-->
<path fill="#919396" d="M104.554,107.41l2.217,3.856c11.544-6.636,20.337-17.179,24.757-29.686l-4.195-1.485
	C123.27,91.603,115.179,101.304,104.554,107.41L104.554,107.41z M104.554,107.41"/>
	<!--Dollar Circle Left-->
<path fill="none" stroke="#919396" stroke-width="4" stroke-miterlimit="10" d="M24.87,70.452C12.258,70.452,2,60.195,2,47.583
	c0-12.61,10.258-22.871,22.87-22.871c12.609,0,22.87,10.261,22.87,22.871C47.739,60.195,37.479,70.452,24.87,70.452L24.87,70.452z
	 M24.87,70.452"/>
	<!--Dollar Sign Left-->
<path fill="#919396" d="M26.775,45.677h-3.812c-2.101,0-3.811-1.71-3.811-3.812c0-2.103,1.71-3.811,3.811-3.811h3.812
	c2.103,0,3.811,1.708,3.811,3.811H34.4c0-4.203-3.42-7.623-7.624-7.623v-3.812h-3.813v3.812c-4.204,0-7.622,3.42-7.622,7.623
	c0,4.204,3.418,7.624,7.622,7.624h3.813c2.102,0,3.812,1.708,3.812,3.812c0,2.101-1.71,3.812-3.812,3.812h-3.813
	c-2.101,0-3.811-1.712-3.811-3.812h-3.812c0,4.204,3.42,7.622,7.624,7.622v3.812h3.812v-3.812c4.205,0,7.623-3.418,7.623-7.622
	S30.978,45.677,26.775,45.677L26.775,45.677z M26.775,45.677"/>
	<!--Dollar Circle Bottom-->
<path fill="none" stroke="#919396" stroke-width="4" stroke-miterlimit="10" d="M79.114,141.42c-12.611,0-22.87-10.257-22.87-22.868
	c0-12.61,10.258-22.871,22.87-22.871c12.609,0,22.87,10.261,22.87,22.871C101.983,131.164,91.723,141.42,79.114,141.42
	L79.114,141.42z M79.114,141.42"/>
	<!--Dollar Sign Bottom-->
<path fill="#919396" d="M81.019,116.646h-3.812c-2.101,0-3.811-1.71-3.811-3.812c0-2.103,1.71-3.811,3.811-3.811h3.812
	c2.103,0,3.811,1.708,3.811,3.811h3.814c0-4.203-3.42-7.623-7.624-7.623V101.4h-3.813v3.812c-4.204,0-7.622,3.42-7.622,7.623
	c0,4.204,3.418,7.624,7.622,7.624h3.813c2.102,0,3.812,1.708,3.812,3.812c0,2.101-1.71,3.812-3.812,3.812h-3.813
	c-2.101,0-3.811-1.712-3.811-3.812h-3.812c0,4.204,3.42,7.622,7.624,7.622v3.812h3.812v-3.812c4.205,0,7.623-3.418,7.623-7.622
	S85.222,116.646,81.019,116.646L81.019,116.646z M81.019,116.646"/>
	<!--Arrow Left Top-->
<path fill="#919396" d="M123.097,10.378v46.697h4.447V10.378l2.668,3.557l3.559-2.668L125.321,0l-8.45,11.267l3.559,2.668
	L123.097,10.378z M123.097,10.378"/>
	<!--Arrow Left Bottom-->
<rect x="123.097" y="61.522" fill="#919396" width="4.447" height="6.67"/>
	<!--Arrow Right Top-->
<path fill="#919396" d="M145.333,23.72v40.024h4.447V23.72l2.67,3.557l3.557-2.668l-8.449-11.266l-8.449,11.266l3.557,2.668
	L145.333,23.72z M145.333,23.72"/>
	<!--Arrow Left Bottom-->
<rect x="145.333" y="68.192" fill="#919396" width="4.447" height="6.672"/>
	<!--Bar Graph Left-->
<path fill="#36BEC3" d="M68.583,77.873V55.636h-9.527v22.236H68.583z"/>
	<!--Bar Graph Mid-->
<path fill="#36BEC3" d="M74.35,77.873h9.527V44.518H74.35V77.873z"/>
	<!--Bar Graph Right-->
<path fill="#36BEC3" d="M99.126,77.873V37.847h-9.527v40.025H99.126z"/>
	<!--Bar Graph Overlay-->
<path opacity="0.5" fill="#FFFFFF" d="M68.583,77.873V55.636h-9.527v22.236H68.583z"/>
<path opacity="0.5" fill="#FFFFFF" d="M74.35,77.873h9.527V44.518H74.35V77.873z"/>
<path opacity="0.5" fill="#FFFFFF" d="M99.126,77.873V37.847h-9.527v40.025H99.126z"/>
</svg>
