<!--lead-magnet-icon-->
<!DOCTYPE svg PUBLIC "-//W3C//DTD SVG 1.1//EN" "http://www.w3.org/Graphics/SVG/1.1/DTD/svg11.dtd" [
	<!ENTITY ns_flows "http://ns.adobe.com/Flows/1.0/">
]><svg xmlns="http://www.w3.org/2000/svg" width="400" height="400" viewBox="-65 -57.462 400 400" overflow="visible" enable-background="new -65 -57.462 400 400"><path fill="#3F51B5" d="M50.396 106.656h92.757v7.717h-92.757zM50.396 150.142h92.757v7.745h-92.757zM37.963 128.409h117.586v7.711h-117.586zM208.764 142.281c-5.278 0-10.371.741-15.256 2.002-3.08.792-6.08 1.771-8.955 3.011-21.755 9.403-37.027 31.058-37.027 56.226 0 9.358 2.171 18.202 5.943 26.146 1.49 3.134 3.209 6.135 5.188 8.954 6.486 9.23 15.426 16.603 25.896 21.129 2.875 1.242 5.875 2.216 8.955 3.008 4.885 1.259 9.978 2.002 15.256 2.002 33.767 0 61.236-27.472 61.236-61.238s-27.47-61.24-61.236-61.24zm0 113.21c-5.307 0-10.428-.807-15.256-2.29-3.124-.962-6.114-2.227-8.955-3.729-5.283-2.794-9.999-6.489-14.01-10.854-2.512-2.737-4.736-5.729-6.623-8.954-4.502-7.69-7.131-16.609-7.131-26.146 0-19.918 11.274-37.229 27.764-45.95 2.841-1.505 5.831-2.768 8.955-3.728 4.828-1.483 9.949-2.296 15.256-2.296 28.656 0 51.972 23.317 51.972 51.974s-23.316 51.973-51.972 51.973zM206.02 221.28c.811.704 1.762 1.081 2.754 1.081.983 0 1.934-.377 2.783-1.13l18.867-17.764c.796-.747 1.264-1.808 1.285-2.904.021-1.087-.381-2.1-1.126-2.859-1.469-1.504-4.248-1.575-5.751-.157l-11.994 11.311v-32.758c0-2.244-1.827-4.071-4.074-4.071-2.248 0-4.076 1.827-4.076 4.071v32.758l-11.991-11.306c-1.541-1.463-4.397-1.361-5.808.209-1.51 1.68-1.427 4.127.214 5.707l18.917 17.812zM227.63 226.867h-37.734c-2.244 0-4.072 1.827-4.072 4.072 0 2.248 1.828 4.071 4.072 4.071h37.734c2.244 0 4.068-1.823 4.068-4.071 0-2.245-1.824-4.072-4.068-4.072z"/><path d="M18.259 0v9.266h185.04700000000003v125.085c1.803-.152 3.616-.256 5.459-.256 1.284 0 2.54.123 3.807.195v-134.29h-194.313zM0 18.234v266.84h193.508v-13.933c-.681-.155-1.364-.294-2.038-.467-2.359-.604-4.657-1.354-6.917-2.18v7.625h-175.6v-37.502h140.016c-1.035-1.774-2.005-3.591-2.891-5.457-.548-1.151-1.062-2.317-1.546-3.497h-135.579v-202.475h175.6v111.354c2.26-.825 4.558-1.571 6.917-2.179.674-.174 1.357-.308 2.038-.463v-117.666h-193.50799999999998z"/></svg>