<?xml version="1.0" encoding="utf-8"?>
<!-- Generator: Adobe Illustrator 15.1.0, SVG Export Plug-In  -->
<!DOCTYPE svg PUBLIC "-//W3C//DTD SVG 1.1//EN" "http://www.w3.org/Graphics/SVG/1.1/DTD/svg11.dtd" [
	<!ENTITY ns_flows "http://ns.adobe.com/Flows/1.0/">
]>
<svg version="1.1"
	 xmlns="http://www.w3.org/2000/svg" xmlns:xlink="http://www.w3.org/1999/xlink" xmlns:a="http://ns.adobe.com/AdobeSVGViewerExtensions/3.0/"
	 x="0px" y="0px" width="172px" height="174px" viewBox="-12.335 -2.836 172 174" enable-background="new -12.335 -2.836 172 174"
	 xml:space="preserve">
<defs>
</defs>
<path fill="#919396" d="M71.194,22.041C31.939,22.041,0,53.979,0,93.236c0,0.35,0.012,0.699,0.023,1.047l0.016,0.534l4.594,0.024
	c0.369-11.202,9.432-19.979,20.629-19.979c11.396,0,20.671,9.271,20.671,20.67h4.594c0-10.623,8.054-19.387,18.372-20.533v30.045
	h4.594V75c10.32,1.146,18.373,9.91,18.373,20.533h4.594c0-11.398,9.274-20.67,20.671-20.67c11.196,0,20.261,8.776,20.632,19.979
	l4.593-0.024l0.017-0.534c0.009-0.348,0.021-0.697,0.021-1.047C142.392,53.979,110.452,22.041,71.194,22.041L71.194,22.041z
	 M25.262,70.27c-7.667,0-14.516,3.365-19.137,8.732c6.104-27.912,29.762-49.331,58.776-52.064
	c-4.331,4.501-10.483,12.467-14.264,24.26c-3.189,9.939-4.251,21.824-4.587,30.021C41.485,74.612,33.879,70.27,25.262,70.27
	L25.262,70.27z M71.194,70.27c-8.445,0-15.929,4.176-20.518,10.562c0.358-7.912,1.399-19.089,4.332-28.231
	c4.551-14.188,12.943-22.496,16.186-25.302c3.243,2.806,11.638,11.113,16.187,25.302c2.931,9.134,3.973,20.312,4.33,28.229
	C87.122,74.443,79.641,70.27,71.194,70.27L71.194,70.27z M117.127,70.27c-8.613,0-16.223,4.343-20.786,10.949
	c-0.336-8.197-1.396-20.082-4.587-30.021c-3.779-11.793-9.932-19.756-14.264-24.26c29.015,2.733,52.676,24.152,58.774,52.064
	C131.644,73.635,124.797,70.27,117.127,70.27L117.127,70.27z M117.127,70.27"/>
<path fill="#919396" d="M68.898,148.355c0,6.333-5.15,11.484-11.481,11.484c-6.333,0-11.484-5.151-11.484-11.484v-2.295H41.34v2.295
	c0,8.865,7.211,16.078,16.077,16.078c8.864,0,16.075-7.213,16.075-16.078v-2.295h-4.594V148.355z M68.898,148.355"/>
<rect x="105.616" fill="#919396" width="4.593" height="18.373"/>
<rect x="105.616" y="22.967" fill="#919396" width="4.593" height="4.593"/>
<rect x="133.175" y="20.67" fill="#919396" width="4.593" height="29.855"/>
<rect x="119.395" y="16.298" fill="#919396" width="4.594" height="20.672"/>
<rect x="119.395" y="7.112" fill="#919396" width="4.594" height="4.593"/>
<path fill="#EC5866" d="M94.088,102.441c-3.245-3.227-7.552-5.003-12.126-5.003c-3.963,0-7.721,1.331-10.766,3.785
	c-3.044-2.453-6.802-3.785-10.766-3.785c-4.576,0-8.882,1.777-12.131,5.008c-3.247,3.232-5.039,7.497-5.045,12.01
	c-0.007,4.716,1.945,9.271,5.499,12.826l22.445,22.45l22.442-22.45c3.555-3.554,5.508-8.11,5.5-12.822
	C99.134,109.946,97.342,105.679,94.088,102.441z M86.519,120.16l-15.323,15.328l-15.322-15.326c-1.647-1.648-2.553-3.67-2.55-5.691
	c0.003-1.819,0.742-3.555,2.081-4.888c1.344-1.337,3.13-2.074,5.026-2.074c1.911,0,3.705,0.747,5.054,2.103l5.712,5.743l5.712-5.743
	c1.349-1.355,3.143-2.103,5.054-2.103c1.896,0,3.682,0.737,5.026,2.074c1.339,1.333,2.078,3.069,2.08,4.888
	C89.072,116.492,88.166,118.514,86.519,120.16z"/>
</svg>
