<!--logo-design-icon-->
<!DOCTYPE svg PUBLIC "-//W3C//DTD SVG 1.1//EN" "http://www.w3.org/Graphics/SVG/1.1/DTD/svg11.dtd" [
	<!ENTITY ns_flows "http://ns.adobe.com/Flows/1.0/">
]><svg xmlns="http://www.w3.org/2000/svg" width="400" height="400" viewBox="-48.204 -65 400 400" overflow="visible" enable-background="new -48.204 -65 400 400"><path fill="#3F51B5" d="M196.637 118.887v.002l78.52-78.522-78.52 78.52zM283.397 32.137l6.097-6.101.032-.04-6.137 6.138.008.003zM297.72 5.861c-3.793-3.78-8.834-5.861-14.201-5.861-5.372 0-10.414 2.088-14.191 5.877l-96.946 96.938c-.125.118-.242.25-.49.551l-.532.806c-.092.168-.179.355-.179.369l-14.415 33.73-.688 1.601c-.931 2.203-.439 4.713 1.246 6.398 1.084 1.089 2.594 1.714 4.132 1.714.784 0 1.551-.157 2.271-.464l35.025-14.979c.095-.033.201-.066.579-.264l.93-.602c.188-.135.359-.299.495-.438l96.965-96.965c7.829-7.83 7.829-20.573-.001-28.411zm-7.849 19.79l-.345.345-.032.04-6.097 6.101-.008-.003-8.232 8.233-78.521 78.521v-.002l-10.208 6.265-13.934 5.955 5.949-13.939 6.247-10.222 93.238-93.236.052.053c3.253-2.803 8.449-2.707 11.513.341 3.151 3.158 3.242 8.204.34 11.513l.038.035z"/><path d="M198.233 149.828c.771 4.837 1.181 9.787 1.181 14.836 0 51.875-42.202 94.081-94.081 94.081-51.875 0-94.077-42.206-94.077-94.081 0-51.879 42.202-94.084 94.077-94.084 23.197 0 44.44 8.453 60.859 22.42l7.978-7.973c-18.482-15.994-42.54-25.704-68.837-25.704-58.078 0-105.333 47.256-105.333 105.341 0 58.081 47.255 105.335 105.333 105.335 58.086 0 105.337-47.254 105.337-105.335 0-8.398-1.015-16.555-2.88-24.389l-9.557 9.553z"/><path fill="#3F51B5" d="M236.025 112.042l-8.59 8.588c19.421 7.192 33.325 25.841 33.325 47.733 0 28.085-22.849 50.936-50.937 50.936-28.082 0-50.926-22.851-50.926-50.936 0-2.894.296-5.715.761-8.481l-10.743-4.082c-.835 4.06-1.274 8.264-1.274 12.563 0 34.292 27.894 62.189 62.183 62.189 34.291 0 62.191-27.897 62.191-62.189.001-24.922-14.771-46.41-35.99-56.321z"/><path d="M50.843 175.615l-6.665 20.195h-8.574l21.911-64.2h9.903l21.907 64.2h-8.86l-6.858-20.195h-22.764zm21.144-6.477l-6.376-18.482c-1.433-4.185-2.382-7.998-3.338-11.717h-.187c-.949 3.719-1.91 7.716-3.243 11.631l-6.279 18.568h19.423zM131.276 184.764c0 4.001.188 7.9.665 11.047h-7.522l-.667-5.802h-.281c-2.58 3.618-7.53 6.854-14.104 6.854-9.336 0-14.099-6.578-14.099-13.242 0-11.143 9.91-17.239 27.714-17.144v-.965c0-3.706-1.041-10.666-10.468-10.574-4.386 0-8.863 1.251-12.099 3.434l-1.912-5.617c3.821-2.382 9.431-3.999 15.248-3.999 14.093 0 17.524 9.616 17.524 18.761v17.247zm-8.096-12.479c-9.145-.19-19.528 1.436-19.528 10.383 0 5.521 3.62 8.002 7.812 8.002 6.097 0 10.008-3.809 11.336-7.72.286-.949.381-1.901.381-2.663v-8.002z"/></svg>