<?xml version="1.0" encoding="utf-8"?>
<!-- Generator: Adobe Illustrator 15.1.0, SVG Export Plug-In  -->
<!DOCTYPE svg PUBLIC "-//W3C//DTD SVG 1.1//EN" "http://www.w3.org/Graphics/SVG/1.1/DTD/svg11.dtd" [
	<!ENTITY ns_flows "http://ns.adobe.com/Flows/1.0/">
]>
<svg version="1.1"
	 xmlns="http://www.w3.org/2000/svg" xmlns:xlink="http://www.w3.org/1999/xlink" xmlns:a="http://ns.adobe.com/AdobeSVGViewerExtensions/3.0/"
	 x="0px" y="0px" width="160px" height="149px" viewBox="-10.091 -13.339 160 149"
	 overflow="visible" enable-background="new -10.091 -13.339 160 149" xml:space="preserve">
<defs>
</defs>
<polygon fill="none" points="41.997,92.553 43.637,81.071 37.45,81.071 39.09,92.553 "/>
<polygon fill="none" points="124.018,92.555 122.379,81.071 65.008,81.071 66.647,92.555 "/>
<polygon fill="none" points="32.805,81.071 20.715,81.071 19.075,92.555 34.446,92.555 "/>
<path fill="none" d="M61.309,64.996H51.227l1.641,11.482h57.371l-1.641-11.482H81.606c-2.982,1.756-6.443,2.782-10.148,2.782
	C67.753,67.777,64.292,66.751,61.309,64.996z"/>
<polygon fill="none" points="6.935,97.148 5.295,108.63 20.668,108.63 19.028,97.148 "/>
<polygon fill="none" points="46.588,64.996 34.495,64.996 32.854,76.478 48.229,76.478 "/>
<polygon fill="none" points="62.055,97.148 60.415,108.63 75.788,108.63 74.149,97.148 "/>
<polygon fill="none" points="60.368,81.071 48.274,81.071 46.635,92.553 58.073,92.553 62.008,92.553 "/>
<polygon fill="none" points="25.309,108.63 28.215,108.63 29.856,97.148 23.668,97.148 "/>
<polygon fill="none" points="78.788,97.148 80.428,108.63 137.795,108.63 136.157,97.148 "/>
<polygon fill="none" points="34.495,97.148 32.854,108.63 48.225,108.63 46.586,97.148 "/>
<polygon fill="none" points="52.868,108.63 55.774,108.63 57.415,97.148 51.227,97.148 "/>
<path fill="#919396" d="M140.141,92.553h-11.482l-2.299-16.075h-11.482l-2.297-16.075H86.995c-1.503,1.834-3.334,3.384-5.389,4.593
	h26.992l1.641,11.482H52.868l-1.641-11.482h10.082c-2.054-1.209-3.885-2.759-5.389-4.593H30.512l-2.295,16.075H16.733l-2.296,16.075
	H2.953L0,113.224h143.094L140.141,92.553z M122.379,81.071l1.639,11.484H66.647l-1.639-11.484H122.379z M34.495,64.996h12.094
	l1.641,11.482H32.854L34.495,64.996z M43.637,81.071l-1.641,11.482H39.09L37.45,81.071H43.637z M20.715,81.071h12.09l1.641,11.484
	H19.075L20.715,81.071z M5.295,108.63l1.64-11.482h12.093l1.641,11.482H5.295z M28.215,108.63h-2.906l-1.641-11.482h6.188
	L28.215,108.63z M32.854,108.63l1.641-11.482h12.092l1.639,11.482H32.854z M55.774,108.63h-2.906l-1.641-11.482h6.188L55.774,108.63
	z M46.635,92.553l1.639-11.482h12.094l1.641,11.482h-3.936H46.635z M60.415,108.63l1.641-11.482h12.094l1.639,11.482H60.415z
	 M80.428,108.63l-1.641-11.482h57.369l1.639,11.482H80.428z"/>
<rect x="69.417" fill="#919396" width="4.262" height="21.297"/>
<rect x="42.796" y="13.365" transform="matrix(0.5 0.866 -0.866 0.5 40.1425 -38.5365)" fill="#919396" width="21.294" height="4.259"/>
<rect x="29.545" y="26.621" transform="matrix(0.866 0.5 -0.5 0.866 19.7596 -16.244)" fill="#919396" width="21.294" height="4.258"/>
<rect x="24.694" y="44.723" fill="#919396" width="21.296" height="4.26"/>
<rect x="97.103" y="44.723" fill="#919396" width="21.298" height="4.26"/>
<rect x="92.252" y="26.619" transform="matrix(-0.866 0.5 -0.5 -0.866 206.3898 2.1945)" fill="#919396" width="21.298" height="4.26"/>
<rect x="87.516" y="4.848" transform="matrix(0.8661 0.4998 -0.4998 0.8661 19.7448 -42.7307)" fill="#919396" width="4.259" height="21.297"/>
<path fill="#F6B848" d="M61.309,64.996c2.982,1.756,6.444,2.782,10.148,2.782c3.705,0,7.166-1.026,10.148-2.782
	c2.055-1.209,3.886-2.759,5.389-4.593c2.84-3.465,4.549-7.891,4.549-12.709c0-11.076-9.01-20.087-20.086-20.087
	c-11.074,0-20.085,9.011-20.085,20.087c0,4.818,1.708,9.244,4.548,12.709C57.424,62.237,59.255,63.786,61.309,64.996z
	 M54.954,47.693c0-9.102,7.404-16.506,16.504-16.506c9.102,0,16.506,7.405,16.506,16.506c0,5.107-2.334,9.679-5.99,12.709
	c-2.857,2.368-6.522,3.794-10.516,3.794c-3.992,0-7.658-1.426-10.516-3.794C57.287,57.373,54.954,52.801,54.954,47.693z"/>
<path fill="#F6B848" d="M78.994,52.215c0-3.325-2.705-6.029-6.029-6.029H69.95c-1.661,0-3.014-1.353-3.014-3.014
	c0-1.663,1.353-3.014,3.014-3.014h3.015c1.663,0,3.015,1.351,3.015,3.014h3.016c0-3.324-2.704-6.029-6.029-6.029v-3.014H69.95v3.014
	c-3.324,0-6.027,2.705-6.027,6.029c0,3.325,2.703,6.029,6.027,6.029h3.016c1.662,0,3.016,1.351,3.016,3.014
	c0,1.662-1.354,3.016-3.016,3.016H69.95c-1.661,0-3.014-1.354-3.014-3.016H63.92c0,3.325,2.705,6.028,6.029,6.028v2.159v0.856h3.015
	v-0.856v-2.159C76.291,58.243,78.994,55.54,78.994,52.215z"/>
</svg>
