<!--monthly-maintenance-icon-->
<!DOCTYPE svg PUBLIC "-//W3C//DTD SVG 1.1//EN" "http://www.w3.org/Graphics/SVG/1.1/DTD/svg11.dtd" [
	<!ENTITY ns_flows "http://ns.adobe.com/Flows/1.0/">
]><svg xmlns="http://www.w3.org/2000/svg" width="400" height="400" viewBox="-65 -98.229 400 400" overflow="visible" enable-background="new -65 -98.229 400 400"><path d="M0 0v203.542h270v-203.542h-270zm260.596 194.138h-251.192v-184.733h251.191v184.733zM26.88 35.947c3.688 0 6.676-2.988 6.676-6.677 0-3.681-2.987-6.672-6.676-6.672-3.682 0-6.673 2.991-6.673 6.672 0 3.689 2.991 6.677 6.673 6.677zM48.421 35.947c3.682 0 6.671-2.988 6.671-6.677 0-3.681-2.989-6.672-6.671-6.672-3.686 0-6.676 2.991-6.676 6.672 0 3.689 2.99 6.677 6.676 6.677zM69.958 35.947c3.683 0 6.677-2.988 6.677-6.677 0-3.681-2.994-6.672-6.677-6.672-3.685 0-6.676 2.991-6.676 6.672 0 3.689 2.991 6.677 6.676 6.677z"/><path fill="#3F51B5" d="M172.683 77.343l-8.188-.272-.314-1.738c-.589-3.219-2.055-6.694-4.123-9.796l-.971-1.448 6.185-6.179-6.689-7.121-6.298 6.636-1.405-.778c-3.129-1.742-6.035-2.992-9.139-3.924l-1.511-.455v-8.407l-9.841.073.071 8.495-1.702.345c-3.255.654-6.419 1.962-9.15 3.785l-1.445.963-7.035-7.04-6.739 6.996 6.525 6.613-.966 1.448c-2.07 3.102-3.538 6.577-4.127 9.796l-.315 1.738h-8.261l.073 9.839 8.158-.07.338 1.701c.653 3.245 1.961 6.404 3.788 9.152l.962 1.44-6.216 6.219 6.86 6.867 5.865-5.774 1.424.851c2.956 1.778 6.24 3.514 10.191 4.17l1.771.296v7.602l9.693-.068.076-7.353 1.562-.428c3.798-1.037 6.995-2.378 10.052-4.219l1.419-.851 5.093 5.092 6.571-6.475-5.395-5.488.78-1.395c1.812-3.264 3.021-6.173 3.906-9.436l.425-1.565h8.113l-.071-9.837zm-37.513 26.376c-12.097 0-21.935-9.839-21.935-21.935 0-12.094 9.838-21.933 21.935-21.933 12.099 0 21.938 9.838 21.938 21.933-.001 11.89-10.047 21.935-21.938 21.935z"/><path d="M70.351 158.572h129.299v8.135h-129.299zM53.046 135.746h163.913v8.1h-163.913z"/><path fill="#3F51B5" d="M135.177 89.639c4.145 0 7.51-3.361 7.51-7.517 0-4.145-3.365-7.51-7.51-7.51-4.147 0-7.521 3.365-7.521 7.51-.001 4.156 3.373 7.517 7.521 7.517z"/></svg>