<!DOCTYPE svg PUBLIC "-//W3C//DTD SVG 1.1//EN" "http://www.w3.org/Graphics/SVG/1.1/DTD/svg11.dtd" [
	<!ENTITY ns_flows "http://ns.adobe.com/Flows/1.0/">
]><svg xmlns="http://www.w3.org/2000/svg" width="400" height="400" viewBox="-44.894 -65 400 400" overflow="visible" enable-background="new -44.894 -65 400 400"><path d="M23.05 36.266h144.692c2.648 0 4.534-1.89 4.534-4.529 0-2.648-1.886-4.534-4.534-4.534h-136.006c-2.645 0-4.531-2.267-4.531-4.914 0-2.264 2.268-4.153 4.531-4.153h136.006c2.648 0 4.534-1.89 4.534-4.534 0-2.645-1.886-4.534-4.534-4.534h-145.073c-7.551 0-13.975 6.421-13.598 13.978.377 7.555 6.42 13.22 13.979 13.22z" fill="none"/><path d="M113.013 217.611h-90.344c-7.551 0-13.598-6.047-13.598-13.604v-163.207c3.777 3.025 8.69 4.538 13.598 4.538h149.607v23.595c2.144-.81 4.303-1.579 6.507-2.252.844-.26 1.714-.446 2.564-.686v-61.457c0-2.647-1.891-4.538-4.532-4.538h-154.146c-12.465 0-22.669 10.203-22.669 22.668v181.34c0 12.472 10.204 22.669 22.669 22.669h95.27c-.986-1.611-1.938-3.247-2.838-4.917-.741-1.36-1.412-2.755-2.088-4.149zm-90.344-208.544h145.073c2.648 0 4.534 1.89 4.534 4.534s-1.886 4.534-4.534 4.534h-136.006c-2.264 0-4.531 1.889-4.531 4.153 0 2.647 1.887 4.914 4.531 4.914h136.006c2.648 0 4.534 1.886 4.534 4.534 0 2.64-1.886 4.529-4.534 4.529h-144.692c-7.559 0-13.602-5.665-13.979-13.22-.377-7.557 6.047-13.978 13.598-13.978z"/><path fill="#3F51B5" d="M210.514 70.679c-10.146 0-19.938 1.534-29.166 4.364-3.09.945-6.116 2.04-9.071 3.274-36.031 15.026-61.424 50.607-61.424 92.021 0 17.096 4.328 33.196 11.945 47.272 1.692 3.127 3.561 6.15 5.566 9.065 17.982 26.141 48.091 43.325 82.15 43.325 54.953 0 99.699-44.707 99.699-99.661 0-54.952-44.746-99.66-99.699-99.66zm0 188.958c-49.233 0-89.262-40.067-89.262-89.298 0-49.229 40.028-89.296 89.262-89.296 49.232 0 89.296 40.066 89.296 89.296 0 49.23-40.064 89.298-89.296 89.298zM210.514 132.052c-21.116 0-38.285 17.173-38.285 38.287 0 21.116 17.169 38.288 38.285 38.288 21.115 0 38.286-17.172 38.286-38.288 0-21.114-17.171-38.287-38.286-38.287zm0 67.526c-16.089 0-29.199-13.11-29.199-29.239 0-16.088 13.11-29.197 29.199-29.197 16.123 0 29.237 13.109 29.237 29.197 0 16.129-13.114 29.239-29.237 29.239zM210.521 161.093c-5.101 0-9.255 4.153-9.255 9.255 0 5.098 4.154 9.251 9.255 9.251s9.258-4.153 9.258-9.251c-.001-5.102-4.158-9.255-9.258-9.255z"/></svg>