<!DOCTYPE svg PUBLIC "-//W3C//DTD SVG 1.1//EN" "http://www.w3.org/Graphics/SVG/1.1/DTD/svg11.dtd" [
	<!ENTITY ns_flows "http://ns.adobe.com/Flows/1.0/">
]><svg xmlns="http://www.w3.org/2000/svg" width="400" height="400" viewBox="-47.686 -73.674 400 400" overflow="visible" enable-background="new -47.686 -73.674 400 400"><path d="M58.127 0v142.01h188.377v-142.01h-188.377zm181.814 135.445h-175.253v-128.883h175.254v128.883z"/><circle cx="76.885" cy="20.424" r="4.657"/><circle cx="91.907" cy="20.424" r="4.657"/><path d="M106.932 25.081c2.574 0 4.66-2.087 4.66-4.656 0-2.574-2.086-4.657-4.66-4.657-2.566 0-4.653 2.083-4.653 4.657-.001 2.569 2.086 4.656 4.653 4.656z"/><path fill="#3F51B5" d="M71.715 84.359h45.496v-36.942h-45.496v36.942zm39.918-31.364v25.786h-34.34v-25.786h34.34z"/><path d="M71.715 91.106h45.496v5.929h-45.496zM71.715 101.535h34.844v5.926h-34.844z"/><path fill="#3F51B5" d="M129.564 84.359h45.501v-36.942h-45.501v36.942zm39.915-31.364v25.786h-34.336v-25.786h34.336z"/><path d="M129.564 91.106h45.501v5.929h-45.501zM129.564 101.535h34.849v5.926h-34.849z"/><path fill="#3F51B5" d="M187.418 47.417v36.942h45.496v-36.942h-45.496zm5.578 31.364v-25.786h34.336v25.786h-34.336z"/><path d="M187.418 91.106h45.496v5.929h-45.496zM187.418 101.535h34.849v5.926h-34.849z"/><path fill="none" d="M119.921 206.127h64.787v39.492h-64.787zM7.068 206.127h64.755v39.492h-64.755zM232.808 206.127h64.756v39.492h-64.756z"/><path fill="#3F51B5" d="M35.93 199.062h-35.93v53.59h78.889v-53.59h-42.959zm35.893 46.557h-64.755v-39.492h64.755v39.492z"/><path d="M42.963 174.703h105.819v16.34h7.065v-16.34h105.82v16.34h7.037v-23.383h-112.857v-25.65h-7.065v25.65h-112.852v23.383h7.033z"/><path fill="#3F51B5" d="M148.782 199.062h-35.894v53.59h78.859v-53.59h-42.965zm35.926 46.557h-64.787v-39.492h64.787v39.492zM261.667 199.062h-35.927v53.59h78.889v-53.59h-42.961999999999996zm35.896 46.557h-64.756v-39.492h64.756v39.492z"/></svg>