<?xml version="1.0" encoding="utf-8"?>
<!-- Generator: Adobe Illustrator 15.1.0, SVG Export Plug-In  -->
<!DOCTYPE svg PUBLIC "-//W3C//DTD SVG 1.1//EN" "http://www.w3.org/Graphics/SVG/1.1/DTD/svg11.dtd" [
	<!ENTITY ns_flows "http://ns.adobe.com/Flows/1.0/">
]>
<svg version="1.1"
	 xmlns="http://www.w3.org/2000/svg" xmlns:xlink="http://www.w3.org/1999/xlink" xmlns:a="http://ns.adobe.com/AdobeSVGViewerExtensions/3.0/"
	 x="0px" y="0px" width="160px" height="149px" viewBox="-7.846 -21.053 160 149"
	 overflow="visible" enable-background="new -7.846 -21.053 160 149" xml:space="preserve">
<defs>
</defs>
<path fill="#919396" d="M92.172,3.174l-0.951-0.322L89.8,7.221l0.863,0.292l0.039,0.014c2.467,0.86,4.884,1.909,7.183,3.122
	l2.142-4.066c-2.503-1.319-5.131-2.458-7.811-3.392C92.201,3.184,92.188,3.18,92.172,3.174L92.172,3.174z M92.172,3.174"/>
<path fill="#1B83C6" d="M140.048,32.152v-6.891C140.048,11.334,128.715,0,114.784,0c-6.144,0-11.776,2.21-16.159,5.867l-3.419,3.458
	c-3.548,4.352-5.684,9.9-5.684,15.936v6.891h-4.594v18.374h4.594v-4.594h6.889v-4.595h-6.889v-4.593h50.525v4.593h-6.891v4.595
	h6.891v22.967h-6.891v4.593h6.891v4.593H89.522v-4.593h6.889v-4.593h-6.889v-4.596h-4.594v18.373h59.713V32.152H140.048z
	 M103.302,32.152v-6.891c0-6.331,5.151-11.482,11.482-11.482c6.333,0,11.484,5.151,11.484,11.482v6.891H103.302z M130.861,32.152"/>
<path fill="#919396" d="M48.898,109.329c2.881,1.367,5.891,2.495,8.948,3.356l1.246-4.424c-2.812-0.79-5.58-1.828-8.228-3.083
	L48.898,109.329z M48.898,109.329"/>
<path fill="#919396" d="M67.721,109.931l-0.491,4.565c2.041,0.22,4.13,0.333,6.215,0.336c1.119,0,2.23-0.035,3.336-0.097
	l-0.262-4.584C73.602,110.315,70.604,110.241,67.721,109.931L67.721,109.931z M67.721,109.931"/>
<path fill="#919396" d="M33.281,98.43c2.272,2.226,4.746,4.281,7.357,6.101l2.629-3.769c-2.4-1.675-4.68-3.565-6.769-5.612
	L33.281,98.43z M33.281,98.43"/>
<path fill="#919396" d="M114.531,90.594l3.574,2.886c2.002-2.474,3.806-5.133,5.367-7.901l-3.998-2.254
	C118.036,85.869,116.373,88.315,114.531,90.594L114.531,90.594z M114.531,90.594"/>
<path fill="#919396" d="M85.226,108.923l1.021,4.475c3.104-0.709,6.168-1.684,9.11-2.9l-1.754-4.246
	C90.898,107.371,88.079,108.27,85.226,108.923L85.226,108.923z M85.226,108.923"/>
<path fill="#919396" d="M101.419,102.224l2.438,3.894c2.694-1.688,5.268-3.616,7.651-5.729l-3.046-3.435
	C106.267,98.9,103.895,100.672,101.419,102.224L101.419,102.224z M101.419,102.224"/>
<path fill="#1B83C6" d="M107.896,66.602v6.891h13.779V56.567c1.469-1.675,2.296-3.822,2.296-6.041c0-5.066-4.118-9.187-9.187-9.187
	c-5.066,0-9.187,4.121-9.187,9.187h4.593c0-2.534,2.062-4.594,4.594-4.594c2.534,0,4.596,2.06,4.596,4.594
	c0,1.294-0.547,2.503-1.541,3.396l-0.757,0.686v14.292h-4.594v-2.298H107.896z M107.896,66.602"/>
<path fill="#919396" d="M33.742,22.589l-3.451-3.025c-2.101,2.393-4.014,4.975-5.687,7.676l3.905,2.417
	C30.051,27.17,31.813,24.794,33.742,22.589L33.742,22.589z M33.742,22.589"/>
<path fill="#919396" d="M53.714,3.481l1.582,4.315c2.745-1.005,5.599-1.786,8.478-2.319l-0.834-4.519
	C59.806,1.538,56.702,2.388,53.714,3.481L53.714,3.481z M53.714,3.481"/>
<path fill="#919396" d="M73.444,0l-1.005,0.009l0.097,4.594l0.911-0.009h0.041c2.613,0,5.24,0.195,7.811,0.583l0.684-4.544
	C79.185,0.211,76.328,0,73.49,0C73.475,0,73.461,0,73.444,0L73.444,0z M73.444,0"/>
<path fill="#919396" d="M37.166,12.923l2.904,3.558c2.277-1.857,4.714-3.532,7.251-4.98l-2.277-3.986
	C42.29,9.083,39.64,10.905,37.166,12.923L37.166,12.923z M37.166,12.923"/>
<path opacity="0.5" fill="#FFFFFF" d="M140.048,32.152v-6.891C140.048,11.334,128.715,0,114.784,0
	c-6.144,0-11.776,2.21-16.159,5.867l-3.419,3.458c-3.548,4.352-5.684,9.9-5.684,15.936v6.891h-4.594v18.374h4.594v-4.594h6.889
	v-4.595h-6.889v-4.593h50.525v4.593h-6.891v4.595h6.891v22.967h-6.891v4.593h6.891v4.593H89.522v-4.593h6.889v-4.593h-6.889v-4.596
	h-4.594v18.373h59.713V32.152H140.048z M103.302,32.152v-6.891c0-6.331,5.151-11.482,11.482-11.482
	c6.333,0,11.484,5.151,11.484,11.482v6.891H103.302z M130.861,32.152"/>
<path opacity="0.5" fill="#FFFFFF" d="M107.896,66.602v6.891h13.779V56.567c1.469-1.675,2.296-3.822,2.296-6.041
	c0-5.066-4.118-9.187-9.187-9.187c-5.066,0-9.187,4.121-9.187,9.187h4.593c0-2.534,2.062-4.594,4.594-4.594
	c2.534,0,4.596,2.06,4.596,4.594c0,1.294-0.547,2.503-1.541,3.396l-0.757,0.686v14.292h-4.594v-2.298H107.896z M107.896,66.602"/>
<path fill="#919396" d="M41.291,64.306c0-5.066-4.118-9.187-9.187-9.187h-4.593c-2.532,0-4.594-2.062-4.594-4.593
	c0-2.534,2.062-4.594,4.594-4.594h4.593c2.534,0,4.596,2.06,4.596,4.594v2.295h4.594v-2.295c0-5.066-4.121-9.187-9.187-9.187v-2.297
	h-4.594v2.297c-5.068,0-9.187,4.121-9.187,9.187c0,5.065,4.118,9.187,9.187,9.187h4.594c2.531,0,4.593,2.059,4.593,4.593
	c0,2.534-2.062,4.593-4.593,4.593h-4.594c-2.534,0-4.593-2.06-4.593-4.593v-2.298h-4.596v2.298c0,5.065,4.12,9.187,9.187,9.187
	v2.295h4.593v-2.295C37.173,73.493,41.291,69.372,41.291,64.306L41.291,64.306z M41.291,64.306"/>
<path fill="#919396" d="M24.054,86.662c0.925,1.56,1.916,3.081,2.98,4.54l3.713-2.706c-0.305-0.417-0.596-0.846-0.888-1.273
	c-0.017,0-0.033,0.002-0.049,0.002C27.84,87.225,25.917,87.028,24.054,86.662z"/>
<path fill="#919396" d="M120.687,47.1l-0.65-1.121H57.32c-4.598-11.054-15.457-18.374-27.51-18.374C13.373,27.604,0,40.978,0,57.415
	c0,14.468,10.362,26.557,24.054,29.247c1.863,0.366,3.787,0.563,5.756,0.563c0.017,0,0.033-0.002,0.049-0.002
	c12.034-0.02,22.87-7.333,27.461-18.371h62.012V55.605l0.012-0.01c1.472-1.325,2.283-3.125,2.283-5.068
	C121.627,49.346,121.302,48.161,120.687,47.1z M116.328,52.254l-1.496,1.355v10.742H54.185l-0.531,1.499
	C50.081,75.943,40.499,82.725,29.81,82.725c-0.947,0-1.881-0.057-2.802-0.159c-1.01-0.112-2.001-0.286-2.973-0.514
	C12.854,79.432,4.5,69.384,4.5,57.415c0-13.956,11.354-25.311,25.31-25.311c10.688,0,20.271,6.782,23.845,16.875l0.531,1.499h62.941
	c0,0.016,0,0.032,0,0.048C117.127,51.187,116.853,51.783,116.328,52.254z"/>
</svg>
