<?xml version="1.0" encoding="utf-8"?>
<!-- Generator: Adobe Illustrator 15.1.0, SVG Export Plug-In  -->
<!DOCTYPE svg PUBLIC "-//W3C//DTD SVG 1.1//EN" "http://www.w3.org/Graphics/SVG/1.1/DTD/svg11.dtd" [
	<!ENTITY ns_flows "http://ns.adobe.com/Flows/1.0/">
]>
<svg version="1.1"
	 xmlns="http://www.w3.org/2000/svg" xmlns:xlink="http://www.w3.org/1999/xlink" xmlns:a="http://ns.adobe.com/AdobeSVGViewerExtensions/3.0/"
	 x="0px" y="0px" width="160px" height="149px" viewBox="-8.971 -4.953 160 149"
	 overflow="visible" enable-background="new -8.971 -4.953 160 149" xml:space="preserve">
<defs>
</defs>
<rect x="43.635" y="56.142" opacity="0.5" fill="#FFFFFF" width="36.747" height="6.573"/>
<path fill="none" d="M49.81,46.529c-3.573-0.37-9.767,0.598-9.767,0.598c-11.228,1.904-19.374,11.566-19.374,22.969V96.99
	c0,8.705,4.809,16.618,12.548,20.654l1.232,0.646v12.318c0,0.643,0.521,1.163,1.162,1.163H58.55c0.642,0,1.163-0.521,1.163-1.163
	v-10.321H82.68v10.321c0,0.643,0.521,1.163,1.162,1.163h22.939c0.639,0,1.16-0.521,1.16-1.163v-10.794l1.649-0.483
	c7.632-2.242,13.524-8.138,15.767-15.768l0.484-1.646h9.701c1.246,0,2.256-1.012,2.256-2.257v-23.05c0-1.244-1.01-2.254-2.256-2.254
	h-9.226v-4.262c0-7.831-3.91-15.094-10.455-19.432l-1.029-0.678V34.165c0-1.899-1.545-3.444-3.444-3.444
	c-7.824,0-14.358,6.12-14.875,13.932l-0.144,2.146H73.725c-3.494,1.874-7.482,2.94-11.717,2.94
	C57.577,49.739,53.417,48.569,49.81,46.529z M92.229,63.93c0.148-0.231,3.711-5.648,11.118-5.648c7.41,0,10.973,5.417,11.121,5.648
	c0.686,1.068,0.375,2.49-0.692,3.174c-0.385,0.246-0.813,0.363-1.239,0.363c-0.756,0-1.496-0.373-1.935-1.056
	c-0.085-0.13-2.418-3.537-7.255-3.537c-4.929,0-7.229,3.499-7.252,3.537c-0.686,1.067-2.108,1.375-3.174,0.692
	C91.854,66.418,91.544,64.998,92.229,63.93z M80.382,62.566H43.635v-6.436h36.747V62.566z"/>
<path fill="none" d="M6.892,72.061c-1.268,0-2.298,1.03-2.298,2.295c0,1.268,1.03,2.298,2.298,2.298c1.265,0,2.295-1.03,2.295-2.298
	C9.187,73.091,8.156,72.061,6.892,72.061z"/>
<path fill="#919396" d="M135.542,69.762h-4.637c-0.102-8.83-4.357-17.027-11.48-22.211V34.165c0-4.432-3.606-8.038-8.04-8.038
	c-9.506,0-17.558,6.908-19.193,16.078H79.816c-1.777,1.825-3.829,3.38-6.091,4.594h22.644l0.144-2.146
	c0.517-7.812,7.051-13.932,14.875-13.932c1.899,0,3.444,1.545,3.444,3.444v15.821l1.029,0.678
	c6.545,4.338,10.455,11.601,10.455,19.432v4.262h9.226c1.246,0,2.256,1.01,2.256,2.254v23.05c0,1.245-1.01,2.257-2.256,2.257h-9.701
	l-0.484,1.646c-2.242,7.63-8.135,13.525-15.767,15.768l-1.649,0.483v10.794c0,0.643-0.521,1.163-1.16,1.163H83.842
	c-0.642,0-1.162-0.521-1.162-1.163v-10.321H59.713v10.321c0,0.643-0.521,1.163-1.163,1.163H35.611c-0.642,0-1.162-0.521-1.162-1.163
	v-12.318l-1.232-0.646c-7.739-4.036-12.548-11.949-12.548-20.654V70.096c0-11.402,8.146-21.064,19.374-22.969
	c0,0,6.194-0.968,9.767-0.598c-2.156-1.219-4.111-2.749-5.808-4.531c-1.487,0.038-4.731,0.599-4.731,0.599
	c-13.439,2.281-23.196,13.847-23.196,27.499v6.558h-2.719c0.257-0.721,0.424-1.487,0.424-2.296c0-3.798-3.093-6.891-6.892-6.891
	c-0.808,0-1.574,0.166-2.295,0.424v-7.312H0v13.779c0,3.799,3.09,6.889,6.892,6.889h9.184V96.99c0,9.949,5.247,19.037,13.78,24.044
	v9.573c0,3.179,2.583,5.758,5.756,5.758H58.55c3.176,0,5.757-2.582,5.757-5.756v-5.726h13.779v5.726c0,3.177,2.58,5.756,5.756,5.756
	h22.939c3.173,0,5.753-2.582,5.753-5.756v-7.412c7.79-2.818,13.873-8.898,16.692-16.691h6.316c3.775,0.003,6.85-3.068,6.85-6.845
	v-23.05C142.392,72.836,139.318,69.762,135.542,69.762z M6.892,76.653c-1.268,0-2.298-1.03-2.298-2.298
	c0-1.265,1.03-2.295,2.298-2.295c1.265,0,2.295,1.03,2.295,2.295C9.187,75.623,8.156,76.653,6.892,76.653z"/>
<rect x="43.635" y="53.964" fill="#EC5765" width="36.747" height="6.436"/>
<path fill="#919396" d="M92.922,67.104c1.065,0.683,2.488,0.375,3.174-0.692c0.023-0.038,2.323-3.537,7.252-3.537
	c4.837,0,7.17,3.407,7.255,3.537c0.438,0.683,1.179,1.056,1.935,1.056c0.426,0,0.854-0.117,1.239-0.363
	c1.067-0.684,1.378-2.105,0.692-3.174c-0.148-0.231-3.711-5.648-11.121-5.648c-7.407,0-10.97,5.417-11.118,5.648
	C91.544,64.998,91.854,66.418,92.922,67.104z"/>
<path fill="#919396" d="M49.81,46.529c3.607,2.04,7.767,3.21,12.198,3.21c4.234,0,8.223-1.066,11.717-2.94
	c2.263-1.214,4.314-2.769,6.091-4.594c4.365-4.482,7.062-10.598,7.062-17.334C86.878,11.157,75.722,0,62.008,0
	s-24.87,11.157-24.87,24.871c0,6.633,2.616,12.663,6.864,17.127C45.699,43.78,47.654,45.311,49.81,46.529z M62.008,4
	c11.507,0,20.87,9.362,20.87,20.871c0,7.216-3.683,13.585-9.266,17.334c-3.321,2.229-7.312,3.534-11.604,3.534
	s-8.283-1.305-11.604-3.534c-5.583-3.749-9.266-10.118-9.266-17.334C41.139,13.362,50.501,4,62.008,4z"/>
<path fill="#919396" d="M63.914,22.965h-3.812c-2.101,0-3.811-1.71-3.811-3.812c0-2.103,1.71-3.811,3.811-3.811h3.812
	c2.103,0,3.811,1.708,3.811,3.811h3.814c0-4.203-3.42-7.623-7.624-7.623V7.719h-3.813v3.812c-4.204,0-7.622,3.42-7.622,7.623
	c0,4.204,3.418,7.624,7.622,7.624h3.813c2.102,0,3.812,1.708,3.812,3.812c0,2.101-1.71,3.812-3.812,3.812h-3.813
	c-2.101,0-3.811-1.712-3.811-3.812h-3.812c0,4.204,3.42,7.622,7.624,7.622v3.812h3.812v-3.812c4.205,0,7.623-3.418,7.623-7.622
	S68.117,22.965,63.914,22.965L63.914,22.965z M63.914,22.965"/>
<rect x="43.635" y="53.964" opacity="0.5" fill="#FFFFFF" width="36.747" height="6.436"/>
</svg>
