<?xml version="1.0" encoding="utf-8"?>
<!-- Generator: Adobe Illustrator 15.1.0, SVG Export Plug-In  -->
<!DOCTYPE svg PUBLIC "-//W3C//DTD SVG 1.1//EN" "http://www.w3.org/Graphics/SVG/1.1/DTD/svg11.dtd" [
        <!ENTITY ns_flows "http://ns.adobe.com/Flows/1.0/">
        ]>
<svg version="1.1"
	 xmlns="http://www.w3.org/2000/svg" xmlns:xlink="http://www.w3.org/1999/xlink" xmlns:a="http://ns.adobe.com/AdobeSVGViewerExtensions/3.0/"
	 x="0px" y="0px" width="160px" height="149px" viewBox="-9.16 -1.667 160 149"
	 overflow="visible" enable-background="new -9.16 -1.667 160 149" xml:space="preserve">
<defs>
</defs>
<rect x="66.102" y="4.447" fill="#919396" width="4.447" height="11.118"/>
<rect x="74.997" fill="#919396" width="4.447" height="13.342"/>
<path fill="none" d="M85.741,35.766c0-7.151-5.818-12.969-12.968-12.969s-12.968,5.818-12.968,12.969
	c0,4.121,1.939,7.792,4.945,10.168h2.227h2.228h9.107h2.484C83.802,43.557,85.741,39.887,85.741,35.766z"/>
<path fill="none" d="M90.417,77.065c0-1.225-0.998-2.224-2.225-2.224h-3.226c-0.552,1.239-1.378,2.342-2.497,3.181
	c-0.78,0.583-1.643,1.002-2.539,1.267h8.262C89.419,79.289,90.417,78.291,90.417,77.065z"/>
<path fill="none" d="M79.298,88.184h8.894c1.227,0,2.225-0.999,2.225-2.225s-0.998-2.223-2.225-2.223h-8.894
	c-1.226,0-2.224,0.997-2.224,2.223S78.073,88.184,79.298,88.184z"/>
<path fill="none" d="M85.584,70.394h2.608c1.227,0,2.225-0.999,2.225-2.224c0-1.226-0.998-2.224-2.225-2.224h-4.713l0.452,0.565
	C84.844,67.651,85.381,68.991,85.584,70.394z"/>
<path fill="none" d="M79.298,97.079h8.894c1.227,0,2.225-0.998,2.225-2.225c0-1.226-0.998-2.223-2.225-2.223h-8.894
	c-1.226,0-2.224,0.997-2.224,2.223C77.075,96.081,78.073,97.079,79.298,97.079z"/>
<path fill="none" d="M88.192,101.526h-8.894c-1.716,0-3.267-0.668-4.447-1.735v3.958h1.112c4.289,0,7.782,3.491,7.782,7.783v1.112
	h-4.447v-1.112c0-1.84-1.497-3.335-3.335-3.335H69.29c-1.837,0-3.334,1.495-3.334,3.335c0,1.839,1.494,3.336,3.334,3.336h6.674
	c4.289,0,7.782,3.49,7.782,7.783c0,4.291-3.493,7.783-7.782,7.783h-1.112v4.447h-4.447v-4.447H69.29
	c-4.29,0-7.781-3.492-7.781-7.783v-1.112h4.447v1.112c0,1.838,1.494,3.335,3.334,3.335h6.674c1.836,0,3.335-1.499,3.335-3.338
	s-1.497-3.335-3.335-3.335H69.29c-4.29,0-7.781-3.491-7.781-7.783s3.491-7.783,7.781-7.783h1.114v-4.447h3.956
	c-1.062-1.184-1.732-2.732-1.732-4.447s0.667-3.264,1.732-4.447c-1.062-1.184-1.732-2.733-1.732-4.447
	c0-1.715,0.667-3.264,1.732-4.447c-0.881-0.977-1.464-2.205-1.646-3.574c-0.273-0.209-0.552-0.414-0.802-0.667l-1.673-1.671
	l-6.562,5.25c-0.289,6.983-3.293,13.775-8.6,19.229c-4.57,4.705-7.023,10.906-6.905,17.464
	c0.228,12.717,10.745,23.479,23.441,23.991c6.767,0.256,13.11-2.145,17.957-6.797c4.848-4.656,7.52-10.924,7.52-17.644
	c0-6.027-2.189-11.7-6.156-16.171C90.095,101.301,89.171,101.526,88.192,101.526z"/>
<path fill="#1EB293" d="M44.196,112.251l-2.092-2.042l-7.279-7.279L0,137.754l5.264,5.269l29.561-29.559l9.512,9.476
	c-0.176-0.824-0.316-1.658-0.418-2.503C43.564,117.407,43.819,114.505,44.196,112.251z"/>
<path fill="#1EB293" d="M137.792,39.987h-16.668v7.447h6.453l-11.194,15.393l-10.677-8.542L94.382,65.783
	c0.189,0.493,0.328,1.011,0.396,1.552l0.018-0.019c0.041,0.286,0.068,0.576,0.068,0.874c0,1.713-0.668,3.264-1.734,4.447
	c0.453,0.504,0.829,1.078,1.118,1.699c0.073,0.159,0.142,0.319,0.203,0.484c0.018,0.047,0.033,0.096,0.05,0.144
	c0.059,0.167,0.109,0.338,0.153,0.51c0.017,0.064,0.032,0.127,0.048,0.192c0.007,0.033,0.011,0.067,0.018,0.1l11.539-11.5
	l11.561,9.248l15.414-21.196l1.562,5.995l7.217-1.81L137.792,39.987z"/>
<path fill="#919396" d="M94.654,75.474c-0.044-0.172-0.095-0.343-0.153-0.51c-0.017-0.048-0.032-0.096-0.05-0.144
	c-0.062-0.165-0.13-0.325-0.203-0.484c-0.289-0.622-0.665-1.195-1.118-1.699c1.066-1.184,1.734-2.734,1.734-4.447
	c0-0.298-0.027-0.588-0.068-0.874l-0.018,0.019c-0.068-0.541-0.207-1.059-0.396-1.552c0-0.001,0-0.003-0.001-0.004
	c-0.052-0.13-0.103-0.261-0.162-0.387c-1.049-2.291-3.342-3.892-6.026-3.892h-0.615l8.895-15.565h-9.635
	c-1.275,1.759-2.866,3.27-4.698,4.447h6.671L82.456,61.5h-2.531l-1.555-1.944L60.988,54.59l-2.708,2.258l-3.934-6.467h4.939h4.122
	c-1.832-1.178-3.422-2.688-4.698-4.447h-4.66h-2.456h-0.906h-4.253l8.39,13.793l-7.463,6.22H3.694v4.447h45.277l13.057-10.88
	l13.754,3.929l4.68,5.847c0.618,0.773,0.892,1.742,0.767,2.727c-0.128,0.981-0.633,1.85-1.425,2.447
	c-1.434,1.077-3.477,0.929-4.746-0.338l-4.486-4.486L57.898,79.776l1.302,1.627c-0.42,5.629-2.961,11.104-7.309,15.573
	c-0.032,0.032-0.058,0.069-0.09,0.1h-0.885l-4.447-2.224H3.694v4.447h41.724l3.271,1.636c-1.5,2.208-2.674,4.595-3.501,7.105
	c-0.004,0.012-0.009,0.023-0.013,0.035c-0.009,0.028-0.017,0.058-0.026,0.086c-0.049,0.151-0.09,0.305-0.136,0.456
	c-0.217,0.75-0.547,2.028-0.815,3.634c-0.377,2.253-0.632,5.155-0.277,8.185c0.102,0.845,0.242,1.679,0.418,2.503
	c2.693,12.602,13.897,22.504,27.096,23.036c0.405,0.016,0.809,0.023,1.207,0.023c7.504,0,14.573-2.834,20.008-8.059
	c5.73-5.5,8.889-12.906,8.889-20.849c0-7.19-2.639-13.952-7.406-19.258c0.455-0.901,0.734-1.901,0.734-2.979
	c0-1.713-0.67-3.264-1.734-4.447c1.064-1.181,1.73-2.728,1.733-4.438c-0.003-1.709-0.671-3.256-1.733-4.438
	c0.002-0.003,0.005-0.007,0.008-0.01c-0.003-0.003-0.006-0.007-0.008-0.01c1.064-1.181,1.73-2.729,1.733-4.438
	c0-0.003,0.001-0.006,0.001-0.01c0-0.026-0.005-0.052-0.006-0.079c-0.002-0.207-0.014-0.411-0.037-0.612
	c-0.008-0.077-0.021-0.152-0.033-0.229c-0.02-0.127-0.043-0.253-0.068-0.379c-0.007-0.033-0.011-0.067-0.018-0.1
	C94.687,75.602,94.671,75.538,94.654,75.474z M88.192,65.947c1.227,0,2.225,0.998,2.225,2.224c0,1.225-0.998,2.224-2.225,2.224
	h-2.608c-0.203-1.403-0.74-2.743-1.653-3.882l-0.452-0.565H88.192z M82.469,78.022c1.119-0.839,1.945-1.941,2.497-3.181h3.226
	c1.227,0,2.225,0.999,2.225,2.224c0,1.226-0.998,2.224-2.225,2.224H79.93C80.827,79.024,81.689,78.605,82.469,78.022z
	 M79.298,83.737h8.894c1.227,0,2.225,0.997,2.225,2.223s-0.998,2.225-2.225,2.225h-8.894c-1.226,0-2.224-0.999-2.224-2.225
	S78.073,83.737,79.298,83.737z M79.298,92.631h8.894c1.227,0,2.225,0.997,2.225,2.223c0,1.227-0.998,2.225-2.225,2.225h-8.894
	c-1.226,0-2.224-0.998-2.224-2.225C77.075,93.628,78.073,92.631,79.298,92.631z M97.089,117.091c0,6.72-2.672,12.987-7.52,17.644
	c-4.846,4.652-11.19,7.053-17.957,6.797c-12.696-0.512-23.214-11.274-23.441-23.991c-0.118-6.558,2.335-12.759,6.905-17.464
	c5.307-5.453,8.311-12.245,8.6-19.229l6.562-5.25l1.673,1.671c0.25,0.253,0.528,0.458,0.802,0.667
	c0.183,1.369,0.766,2.598,1.646,3.574c-1.065,1.184-1.732,2.732-1.732,4.447c0,1.714,0.67,3.264,1.732,4.447
	c-1.065,1.184-1.732,2.732-1.732,4.447s0.67,3.264,1.732,4.447h-3.956v4.447H69.29c-4.29,0-7.781,3.491-7.781,7.783
	s3.491,7.783,7.781,7.783h6.674c1.838,0,3.335,1.496,3.335,3.335s-1.499,3.338-3.335,3.338H69.29c-1.84,0-3.334-1.497-3.334-3.335
	v-1.112h-4.447v1.112c0,4.291,3.491,7.783,7.781,7.783h1.114v4.447h4.447v-4.447h1.112c4.289,0,7.782-3.492,7.782-7.783
	c0-4.293-3.493-7.783-7.782-7.783H69.29c-1.84,0-3.334-1.497-3.334-3.336c0-1.84,1.497-3.335,3.334-3.335h6.674
	c1.838,0,3.335,1.495,3.335,3.335v1.112h4.447v-1.112c0-4.292-3.493-7.783-7.782-7.783h-1.112v-3.958
	c1.181,1.067,2.731,1.735,4.447,1.735h8.894c0.979,0,1.902-0.225,2.74-0.605C94.899,105.391,97.089,111.064,97.089,117.091z"/>
<path fill="#919396" d="M64.75,45.934c-3.006-2.377-4.945-6.047-4.945-10.168c0-7.151,5.818-12.969,12.968-12.969
	s12.968,5.818,12.968,12.969c0,4.121-1.939,7.792-4.945,10.168h6.041c2.077-2.863,3.315-6.37,3.315-10.168
	c0-9.583-7.795-17.379-17.378-17.379s-17.379,7.797-17.379,17.379c0,3.799,1.239,7.306,3.315,10.168h5.81H64.75z"/>
<path fill="#919396" d="M80.796,45.934h-2.484h-9.107h-2.228H64.75h-0.23h-5.81c1.275,1.759,2.866,3.27,4.698,4.447h2.112h12.792
	h3.827c1.832-1.178,3.422-2.688,4.698-4.447H80.796z"/>
<path fill="#919396" stroke="#919396" stroke-width="1.3494" stroke-miterlimit="10" d="M73.729,34.809h-1.914
	c-1.055,0-1.914-0.858-1.914-1.914c0-1.056,0.859-1.914,1.914-1.914h1.914c1.056,0,1.914,0.858,1.914,1.914h1.916
	c0-2.111-1.718-3.829-3.829-3.829v-1.914h-1.915v1.914c-2.111,0-3.827,1.717-3.827,3.829c0,2.111,1.716,3.828,3.827,3.828h1.915
	c1.055,0,1.915,0.858,1.915,1.914c0,1.056-0.859,1.915-1.915,1.915h-1.915c-1.055,0-1.914-0.859-1.914-1.915h-1.915
	c0,2.112,1.718,3.828,3.829,3.828v1.916h1.914v-1.916c2.112,0,3.828-1.716,3.828-3.828C77.558,36.526,75.841,34.809,73.729,34.809
	L73.729,34.809z M73.729,34.809"/>
</svg>
